<svg id="svg" xmlns="http://www.w3.org/2000/svg" xmlns:xlink="http://www.w3.org/1999/xlink" width="400" height="400" viewBox="0, 0, 400,400"><g id="svgg"><path id="path0" d="M170.617 117.255 L 141.759 166.955 115.768 143.303 C 101.473 130.294,80.978 111.612,70.222 101.788 C 59.467 91.963,50.576 84.041,50.465 84.184 C 50.353 84.327,57.733 125.244,66.864 175.111 C 75.995 224.978,83.486 265.978,83.511 266.222 C 83.535 266.467,135.956 266.667,200.000 266.667 C 264.044 266.667,316.465 266.467,316.489 266.222 C 316.514 265.978,324.005 224.978,333.136 175.111 C 342.267 125.244,349.647 84.344,349.535 84.220 C 349.424 84.097,335.333 96.777,318.222 112.398 C 301.111 128.019,280.621 146.695,272.689 153.900 L 258.268 167.000 229.396 117.278 C 213.516 89.931,200.288 67.556,200.000 67.556 C 199.712 67.556,186.490 89.920,170.617 117.255 M83.556 312.081 C 83.556 322.065,84.175 324.337,87.919 328.081 L 92.283 332.444 199.722 332.444 C 325.332 332.444,314.940 334.171,316.130 313.103 L 316.846 300.444 200.201 300.444 L 83.556 300.444 83.556 312.081 " stroke="none" fill="#000000" fill-rule="evenodd"></path></g></svg>