<svg id="svg" version="1.1" xmlns="http://www.w3.org/2000/svg" xmlns:xlink="http://www.w3.org/1999/xlink" width="400" height="400" viewBox="0, 0, 400,400"><g id="svgg"><path id="path0" d="M218.000 18.229 C 216.570 18.535,214.935 19.051,214.366 19.376 C 213.798 19.701,212.451 20.165,211.373 20.406 C 210.295 20.648,209.140 21.087,208.806 21.383 C 208.473 21.679,207.390 22.153,206.400 22.436 C 205.410 22.720,204.187 23.265,203.681 23.648 C 203.176 24.031,202.186 24.471,201.481 24.624 C 200.777 24.778,199.771 25.241,199.246 25.652 C 198.721 26.063,198.072 26.400,197.802 26.400 C 197.110 26.400,192.355 28.860,191.425 29.700 C 190.998 30.085,190.471 30.400,190.253 30.400 C 189.764 30.400,183.270 34.711,182.284 35.689 C 181.891 36.080,181.441 36.401,181.284 36.401 C 180.417 36.405,171.073 46.164,170.288 47.886 C 170.059 48.389,169.729 48.800,169.555 48.800 C 169.380 48.800,168.927 49.453,168.548 50.252 C 167.248 52.993,159.956 59.765,154.498 63.300 C 153.564 63.905,152.115 64.850,151.278 65.400 C 150.442 65.950,149.564 66.400,149.327 66.400 C 149.091 66.400,148.653 66.695,148.355 67.055 C 148.056 67.415,147.089 68.054,146.206 68.475 C 144.429 69.323,142.014 70.680,138.513 72.800 C 137.241 73.570,135.795 74.350,135.300 74.533 C 134.805 74.717,134.400 75.027,134.400 75.223 C 134.400 75.419,133.832 75.873,133.138 76.232 C 132.443 76.591,131.509 77.226,131.062 77.643 C 130.615 78.059,130.109 78.400,129.938 78.400 C 129.347 78.400,122.596 85.462,121.200 87.540 C 120.430 88.687,119.568 89.884,119.283 90.200 C 118.999 90.517,118.568 91.367,118.325 92.088 C 118.083 92.810,117.703 93.631,117.482 93.913 C 114.228 98.069,114.209 111.089,117.453 114.831 C 117.754 115.179,118.000 115.649,118.000 115.876 C 118.000 116.103,118.412 116.898,118.915 117.644 C 119.418 118.390,120.077 119.630,120.380 120.400 C 120.684 121.170,121.217 122.134,121.566 122.543 C 122.640 123.800,122.445 131.724,121.290 133.794 C 120.800 134.671,120.400 135.668,120.400 136.009 C 120.400 136.351,120.023 137.344,119.562 138.215 C 118.754 139.743,117.578 143.525,116.791 147.130 C 116.456 148.661,116.551 149.155,117.606 151.414 C 118.263 152.818,118.800 154.154,118.800 154.383 C 118.800 154.612,118.960 154.800,119.157 154.800 C 119.353 154.800,119.818 155.565,120.190 156.500 C 120.562 157.435,121.099 158.470,121.383 158.800 C 121.667 159.130,122.111 160.061,122.370 160.868 C 122.629 161.675,123.079 162.534,123.371 162.776 C 123.662 163.017,124.126 164.022,124.402 165.008 C 124.678 165.993,125.037 166.800,125.199 166.800 C 125.362 166.800,125.808 167.925,126.190 169.300 C 126.573 170.675,127.042 171.993,127.234 172.230 C 127.425 172.466,127.859 173.996,128.197 175.630 C 128.536 177.263,129.080 179.279,129.407 180.108 C 129.733 180.938,130.000 182.344,130.000 183.234 C 130.000 186.266,130.267 186.430,135.066 186.335 C 141.230 186.214,140.706 187.847,140.309 170.000 C 139.746 144.648,140.071 125.958,141.131 122.848 C 141.609 121.444,142.000 120.034,142.000 119.715 C 142.000 119.105,144.151 113.831,144.820 112.800 C 145.035 112.470,145.546 111.480,145.957 110.600 C 146.794 108.805,151.374 103.406,154.046 101.062 C 155.590 99.708,157.254 98.552,162.800 94.980 C 164.343 93.986,168.468 92.007,169.039 91.987 C 169.237 91.981,170.300 91.532,171.400 90.991 C 172.500 90.450,173.760 90.002,174.200 89.995 C 174.640 89.988,175.767 89.634,176.706 89.208 C 177.644 88.783,179.084 88.322,179.906 88.185 C 180.727 88.048,182.930 87.508,184.800 86.985 C 186.670 86.462,189.820 85.844,191.800 85.611 C 193.780 85.378,196.480 84.972,197.800 84.709 C 202.598 83.752,230.404 84.042,237.200 85.119 C 245.520 86.438,253.099 88.096,254.896 88.989 C 255.499 89.289,256.579 89.660,257.296 89.813 C 266.319 91.736,272.075 99.285,274.217 112.000 C 274.495 113.650,274.995 116.350,275.329 118.000 C 275.664 119.650,276.148 122.620,276.405 124.600 C 276.663 126.580,277.115 129.730,277.409 131.600 C 277.703 133.470,278.058 136.710,278.198 138.800 C 278.338 140.890,278.713 144.220,279.031 146.200 C 279.349 148.180,279.795 152.590,280.021 156.000 C 280.248 159.410,280.695 164.355,281.016 166.988 C 281.337 169.621,281.600 172.519,281.600 173.426 C 281.600 176.203,282.250 176.487,287.853 176.166 C 293.946 175.816,293.410 176.768,293.510 166.124 C 293.602 156.306,294.333 135.233,294.595 134.808 C 294.879 134.348,296.000 122.774,296.005 120.248 C 296.007 118.902,296.366 116.360,296.802 114.600 C 300.161 101.039,296.892 91.596,288.485 90.577 C 283.643 89.990,283.554 89.751,283.585 77.542 C 283.609 67.992,283.602 67.903,282.549 65.461 C 281.297 62.558,278.035 59.138,275.822 58.407 C 275.009 58.139,274.254 57.684,274.143 57.396 C 274.033 57.108,273.460 56.754,272.871 56.610 C 272.282 56.466,270.900 55.930,269.800 55.419 C 268.700 54.907,266.990 54.362,266.000 54.206 C 265.010 54.050,263.831 53.690,263.381 53.405 C 262.931 53.121,261.364 52.701,259.900 52.473 C 257.264 52.063,252.000 49.886,252.000 49.207 C 252.000 49.013,251.685 48.754,251.300 48.631 C 250.171 48.271,245.625 42.020,245.605 40.800 C 245.599 40.470,245.324 39.680,244.993 39.045 C 244.661 38.409,244.048 36.609,243.631 35.045 C 241.824 28.276,240.419 26.284,237.117 25.806 C 234.845 25.477,229.452 26.544,228.130 27.584 C 227.559 28.033,226.891 28.403,226.646 28.407 C 226.204 28.414,223.143 30.319,222.013 31.289 C 218.285 34.493,217.207 33.401,219.663 28.909 C 221.843 24.921,221.995 24.611,221.998 24.144 C 221.999 23.893,222.356 22.903,222.791 21.944 C 224.499 18.179,223.143 17.128,218.000 18.229 M197.929 127.510 C 196.534 127.689,196.307 128.001,194.805 131.800 C 193.012 136.336,192.865 136.393,192.201 132.800 C 191.374 128.318,190.604 127.886,185.321 128.944 C 183.605 129.287,181.009 129.755,179.554 129.983 C 164.787 132.299,156.816 140.165,155.804 153.421 C 155.381 158.967,155.787 159.043,160.737 154.345 C 163.555 151.670,165.563 150.149,167.766 149.022 C 169.461 148.155,170.927 147.318,171.023 147.163 C 171.119 147.007,172.143 146.662,173.299 146.395 C 174.454 146.128,175.795 145.663,176.278 145.360 C 176.761 145.058,178.769 144.550,180.741 144.231 C 182.712 143.912,185.049 143.456,185.934 143.218 C 186.819 142.980,189.742 142.618,192.430 142.414 C 199.793 141.855,201.081 139.877,200.059 130.699 C 199.724 127.687,199.474 127.313,197.929 127.510 M240.400 136.614 C 239.410 136.913,237.254 137.539,235.609 138.005 C 233.964 138.472,232.420 139.018,232.178 139.219 C 231.935 139.420,231.047 139.727,230.204 139.903 C 228.306 140.297,227.391 141.471,226.599 144.529 C 225.451 148.958,225.043 149.289,224.243 146.440 C 222.619 140.652,218.719 141.789,219.849 147.721 C 220.940 153.442,222.970 154.866,228.515 153.797 C 247.995 150.043,258.537 150.600,264.249 155.687 C 266.022 157.267,265.057 152.402,263.140 150.098 C 262.820 149.714,262.080 148.650,261.495 147.733 C 256.396 139.736,246.807 134.682,240.400 136.614 M243.200 166.568 C 239.138 167.810,238.290 168.218,236.095 169.986 C 231.548 173.647,229.777 177.098,231.235 179.456 C 231.887 180.512,232.010 181.155,231.799 182.406 C 230.024 192.912,242.430 200.021,250.342 193.032 C 254.263 189.569,255.392 182.800,252.048 182.800 C 250.038 182.800,248.682 179.963,249.844 178.189 C 251.110 176.257,250.237 174.994,246.657 173.582 C 240.757 171.254,240.805 170.477,246.852 170.428 C 250.499 170.398,255.413 171.780,256.120 173.033 C 256.548 173.792,258.000 173.760,258.000 172.991 C 258.000 169.274,248.225 165.031,243.200 166.568 M172.398 169.548 C 168.050 170.940,162.492 176.536,164.639 177.360 C 164.964 177.484,165.330 177.328,165.451 177.011 C 165.864 175.934,169.811 174.091,173.172 173.406 C 178.438 172.332,187.592 174.498,189.988 177.386 C 190.269 177.724,190.742 178.000,191.040 178.000 C 191.338 178.000,191.876 178.450,192.237 179.000 C 192.975 180.127,193.521 180.272,193.845 179.427 C 194.110 178.735,191.519 175.136,189.360 173.200 C 185.067 169.348,177.866 167.797,172.398 169.548 M178.542 177.955 C 173.447 178.839,169.680 184.221,170.095 190.023 C 170.276 192.555,170.530 193.271,172.155 195.829 C 174.928 200.194,183.170 201.648,187.648 198.562 C 192.730 195.059,194.410 187.323,190.267 186.505 C 188.126 186.082,187.276 184.618,187.931 182.484 C 188.981 179.065,184.528 176.916,178.542 177.955 " stroke="none" fill="#5f3e38" fill-rule="evenodd"></path><path id="path1" d="M219.000 16.828 C 217.900 17.234,216.543 17.574,215.985 17.583 C 215.426 17.593,214.256 17.967,213.385 18.415 C 212.513 18.863,210.993 19.413,210.006 19.638 C 209.020 19.862,207.940 20.282,207.606 20.570 C 207.273 20.859,206.460 21.297,205.800 21.543 L 204.600 21.991 206.000 21.756 C 206.770 21.627,207.773 21.286,208.229 20.998 C 208.685 20.710,209.855 20.246,210.829 19.967 C 211.803 19.688,212.780 19.327,213.000 19.164 C 213.312 18.934,218.059 17.462,220.600 16.808 C 223.428 16.080,224.978 19.580,223.256 22.806 C 222.847 23.573,222.375 24.650,222.209 25.200 C 222.042 25.750,221.675 26.470,221.394 26.800 C 219.411 29.125,219.754 32.537,221.800 30.846 C 225.508 27.784,232.455 24.800,235.877 24.800 C 239.672 24.800,243.109 28.828,244.357 34.738 C 244.605 35.914,245.076 37.259,245.404 37.727 C 246.172 38.824,246.181 37.853,245.416 36.462 C 245.095 35.878,244.635 34.379,244.394 33.131 C 244.153 31.883,243.696 30.646,243.378 30.382 C 243.060 30.118,242.800 29.578,242.800 29.182 C 242.800 26.160,236.121 23.003,233.083 24.588 C 232.469 24.908,231.299 25.284,230.483 25.422 C 229.667 25.561,228.547 25.993,227.992 26.381 C 227.438 26.770,226.538 27.224,225.992 27.390 C 225.447 27.556,224.640 28.005,224.200 28.389 C 221.703 30.563,219.334 30.266,221.545 28.055 C 221.955 27.645,222.420 26.619,222.578 25.775 C 222.737 24.930,223.159 24.025,223.518 23.763 C 224.550 23.009,224.718 18.004,223.740 17.152 C 222.566 16.130,221.153 16.033,219.000 16.828 M202.976 22.594 C 202.549 22.920,201.486 23.387,200.614 23.632 C 199.742 23.877,198.593 24.420,198.060 24.839 C 197.528 25.257,196.791 25.600,196.424 25.600 C 196.056 25.600,195.145 26.050,194.400 26.600 C 193.655 27.150,192.864 27.600,192.644 27.600 C 192.423 27.600,191.603 28.023,190.822 28.540 C 190.040 29.057,188.500 30.040,187.400 30.724 C 184.204 32.713,182.763 33.737,181.804 34.700 C 181.311 35.195,180.755 35.600,180.568 35.600 C 180.381 35.600,179.862 35.950,179.414 36.378 C 178.966 36.805,177.717 37.930,176.639 38.878 C 174.653 40.622,169.205 47.142,166.108 51.483 C 164.455 53.799,160.404 57.738,157.600 59.755 C 153.959 62.374,152.084 63.600,151.721 63.600 C 151.502 63.600,151.002 63.955,150.609 64.390 C 150.216 64.824,149.513 65.292,149.047 65.430 C 148.272 65.659,146.605 66.640,143.992 68.406 C 143.438 68.781,142.538 69.227,141.992 69.398 C 141.447 69.570,140.491 70.135,139.869 70.655 C 139.247 71.175,138.496 71.600,138.200 71.600 C 137.904 71.600,137.153 72.012,136.531 72.516 C 135.909 73.019,134.905 73.645,134.300 73.907 C 133.695 74.169,133.200 74.567,133.200 74.791 C 133.200 75.016,132.970 75.200,132.689 75.200 C 130.944 75.200,119.920 85.984,119.353 88.245 C 119.221 88.770,118.967 89.200,118.788 89.200 C 118.494 89.200,116.000 93.811,116.000 94.353 C 116.000 94.688,117.259 92.827,118.187 91.122 C 122.096 83.935,131.539 75.221,139.400 71.545 C 139.840 71.340,141.190 70.560,142.400 69.813 C 143.610 69.066,145.320 68.082,146.200 67.626 C 147.080 67.171,148.520 66.361,149.400 65.826 C 150.280 65.292,151.511 64.560,152.136 64.198 C 157.655 61.010,163.899 55.344,167.784 50.000 C 171.908 44.329,173.011 43.072,177.200 39.275 C 181.222 35.629,184.425 33.123,187.261 31.400 C 187.985 30.960,189.213 30.203,189.989 29.717 C 190.765 29.231,192.120 28.475,193.000 28.036 C 193.880 27.597,195.050 26.965,195.600 26.631 C 196.150 26.297,198.130 25.306,200.000 24.428 C 203.642 22.719,204.854 22.016,204.176 22.006 C 203.944 22.003,203.404 22.267,202.976 22.594 M246.800 41.976 C 246.800 42.183,246.983 42.466,247.206 42.604 C 247.429 42.742,247.863 43.427,248.170 44.127 C 248.675 45.277,250.374 47.199,252.302 48.800 C 253.639 49.911,257.781 51.582,260.226 51.996 C 261.560 52.223,263.670 52.766,264.916 53.204 C 266.161 53.642,267.437 54.000,267.750 54.000 C 268.064 54.000,269.283 54.448,270.460 54.996 C 273.493 56.408,274.290 56.242,271.400 54.800 C 270.080 54.142,268.547 53.602,267.994 53.602 C 267.441 53.601,266.306 53.234,265.472 52.787 C 264.638 52.340,262.586 51.801,260.911 51.589 C 259.236 51.376,257.581 50.950,257.233 50.641 C 256.885 50.332,255.839 49.854,254.908 49.579 C 253.230 49.082,248.800 45.325,248.800 44.398 C 248.800 43.672,247.607 41.600,247.190 41.600 C 246.975 41.600,246.800 41.769,246.800 41.976 M274.000 56.166 C 274.000 56.257,274.907 56.889,276.015 57.571 C 279.149 59.499,281.560 61.948,282.921 64.585 L 284.168 67.000 284.077 76.696 C 283.958 89.412,284.002 89.525,289.297 90.175 C 292.665 90.588,295.031 92.304,296.779 95.600 L 298.158 98.200 298.179 103.898 C 298.191 107.031,298.359 109.596,298.554 109.598 C 298.752 109.599,298.816 106.923,298.699 103.500 C 298.372 93.880,295.872 90.237,289.175 89.623 C 286.402 89.369,285.954 89.114,284.795 87.129 C 284.562 86.730,284.436 82.441,284.485 76.529 C 284.545 69.193,284.434 66.339,284.061 65.600 C 282.557 62.620,282.002 61.847,279.907 59.818 C 278.647 58.598,277.367 57.600,277.062 57.600 C 276.757 57.600,276.050 57.240,275.491 56.800 C 274.514 56.032,274.000 55.813,274.000 56.166 M115.632 95.125 C 115.614 95.413,115.132 96.639,114.560 97.849 C 113.153 100.822,113.245 108.739,114.716 111.394 C 115.202 112.271,115.600 113.382,115.600 113.863 C 115.600 114.345,116.050 115.273,116.600 115.927 C 117.150 116.581,117.600 117.377,117.600 117.696 C 117.600 118.015,117.950 118.593,118.377 118.979 C 118.805 119.366,119.267 120.196,119.405 120.823 C 119.543 121.450,120.048 122.462,120.528 123.072 C 121.667 124.522,121.790 130.379,120.715 132.000 C 120.351 132.550,119.830 133.900,119.558 135.000 C 119.286 136.100,118.751 137.450,118.369 138.000 C 117.987 138.550,117.555 139.701,117.408 140.558 C 117.262 141.416,116.854 142.556,116.503 143.092 C 115.443 144.710,115.300 150.198,116.284 151.530 C 116.718 152.118,117.289 153.253,117.552 154.052 C 117.815 154.850,118.383 155.823,118.815 156.214 C 119.247 156.604,119.600 157.275,119.600 157.704 C 119.600 158.133,120.050 159.019,120.600 159.673 C 121.150 160.327,121.600 161.173,121.600 161.553 C 121.600 161.933,122.050 162.855,122.600 163.600 C 123.150 164.345,123.600 165.346,123.600 165.824 C 123.600 166.301,123.954 167.142,124.387 167.692 C 124.819 168.242,125.290 169.482,125.433 170.446 C 125.576 171.411,126.023 172.779,126.426 173.488 C 126.829 174.196,127.360 176.266,127.606 178.088 C 127.853 179.909,128.312 181.799,128.627 182.286 C 128.942 182.773,129.200 183.618,129.200 184.162 C 129.200 184.707,129.388 185.269,129.618 185.411 C 130.214 185.779,129.718 181.933,128.818 179.200 C 128.419 177.990,127.909 176.100,127.684 175.000 C 127.054 171.916,123.930 163.946,122.776 162.479 C 122.349 161.936,122.000 161.291,121.999 161.046 C 121.998 160.502,119.697 156.033,118.989 155.200 C 115.703 151.332,115.856 144.030,119.361 137.400 C 119.710 136.740,119.996 135.970,119.998 135.688 C 119.999 135.406,120.450 134.107,121.000 132.800 C 122.141 130.089,122.383 125.338,121.469 123.600 C 113.665 108.767,112.725 105.153,114.977 98.631 C 115.564 96.928,115.959 95.325,115.854 95.068 C 115.723 94.748,115.653 94.766,115.632 95.125 M298.067 112.236 C 298.030 113.136,297.660 115.206,297.245 116.836 C 296.829 118.466,296.280 122.770,296.024 126.400 C 295.768 130.030,295.394 133.990,295.194 135.200 C 294.852 137.261,294.705 139.130,294.216 147.600 C 293.779 155.186,293.504 174.364,293.823 175.057 C 294.026 175.499,294.351 169.233,294.626 159.600 C 294.880 150.690,295.377 140.790,295.730 137.600 C 296.083 134.410,296.546 129.190,296.758 126.000 C 296.970 122.810,297.436 118.690,297.793 116.846 C 298.150 115.001,298.373 112.841,298.288 112.046 L 298.134 110.600 298.067 112.236 M244.100 170.658 C 242.176 171.080,243.403 172.349,247.103 173.763 C 250.159 174.931,251.217 176.341,250.141 177.813 C 248.725 179.749,249.962 182.400,252.283 182.400 C 254.536 182.400,255.285 187.379,253.453 190.175 C 252.903 191.015,252.893 191.139,253.395 190.947 C 253.724 190.820,254.195 189.971,254.442 189.059 C 254.688 188.146,255.044 186.896,255.231 186.280 C 256.016 183.704,254.634 181.600,252.158 181.600 C 251.185 181.600,250.838 181.393,250.652 180.700 C 250.263 179.248,250.350 178.877,251.290 178.002 C 252.029 177.313,252.097 177.058,251.689 176.487 C 251.419 176.109,251.020 175.386,250.801 174.880 C 250.583 174.374,249.864 173.771,249.202 173.541 C 247.896 173.085,247.724 172.727,248.503 172.080 C 249.287 171.430,253.987 172.652,255.222 173.828 C 255.784 174.362,256.460 174.800,256.725 174.800 C 256.990 174.800,257.495 175.520,257.847 176.400 C 258.362 177.688,259.600 178.670,259.600 177.791 C 259.600 174.088,249.551 169.463,244.100 170.658 M171.797 174.049 C 168.059 174.867,162.800 179.051,162.800 181.207 C 162.800 182.005,163.883 180.919,164.151 179.852 C 164.277 179.349,164.835 178.730,165.390 178.477 C 165.946 178.224,166.400 177.836,166.400 177.614 C 166.400 177.392,167.075 176.932,167.900 176.592 C 168.725 176.252,169.602 175.706,169.850 175.380 C 170.944 173.933,183.739 174.158,184.124 175.631 C 184.260 176.152,184.691 176.409,185.463 176.428 C 186.881 176.463,188.273 176.984,187.773 177.293 C 187.261 177.609,183.600 177.170,183.600 176.792 C 183.600 176.135,180.783 175.970,179.499 176.552 C 178.785 176.876,177.570 177.267,176.800 177.422 C 176.030 177.577,174.891 178.130,174.269 178.652 C 173.647 179.173,172.982 179.600,172.791 179.600 C 171.830 179.600,169.626 183.913,169.309 186.413 C 168.577 192.187,169.845 195.783,173.656 198.743 C 175.371 200.075,175.368 200.070,173.500 198.407 C 172.455 197.478,171.600 196.539,171.600 196.321 C 171.600 196.104,171.256 195.489,170.836 194.956 C 168.939 192.544,169.289 185.752,171.447 183.100 C 175.425 178.211,175.914 177.938,180.800 177.886 C 186.629 177.824,188.906 179.307,187.919 182.523 C 187.320 184.475,188.089 185.572,190.622 186.378 C 194.124 187.493,193.939 193.396,190.285 197.188 C 189.358 198.149,188.887 198.770,189.238 198.568 C 190.385 197.907,192.339 195.383,192.636 194.178 C 192.796 193.530,193.154 192.640,193.432 192.200 C 193.956 191.372,194.165 189.899,194.060 187.764 C 193.995 186.432,192.824 185.600,191.014 185.600 C 189.246 185.600,188.800 185.197,188.800 183.600 C 188.800 182.623,189.013 182.004,189.400 181.855 C 189.730 181.729,190.000 181.344,190.000 181.000 C 190.000 180.656,189.730 180.271,189.400 180.145 C 189.070 180.018,188.800 179.448,188.800 178.877 C 188.800 178.070,188.907 177.947,189.280 178.320 C 189.544 178.584,190.084 178.800,190.480 178.800 C 190.876 178.800,191.200 179.042,191.200 179.338 C 191.200 179.634,191.584 180.219,192.054 180.638 C 192.524 181.057,193.400 182.186,194.002 183.146 C 194.604 184.106,195.201 184.721,195.330 184.513 C 195.458 184.305,194.956 183.232,194.213 182.129 C 189.732 175.475,180.496 172.146,171.797 174.049 M230.403 181.188 C 230.165 182.075,229.821 182.800,229.639 182.800 C 229.291 182.800,230.106 185.740,231.043 187.860 C 231.349 188.554,231.600 189.392,231.600 189.723 C 231.600 190.395,234.142 193.600,235.122 194.163 C 235.469 194.362,234.999 193.631,234.078 192.538 C 231.803 189.841,231.031 187.152,231.381 183.144 C 231.681 179.700,231.111 178.559,230.403 181.188 M263.939 314.173 C 263.614 314.887,263.617 316.292,263.949 319.441 C 264.536 325.007,264.311 325.291,258.428 326.398 C 257.233 326.623,255.973 327.043,255.628 327.332 C 255.283 327.622,253.611 328.081,251.914 328.353 C 250.216 328.625,248.325 329.099,247.710 329.405 C 247.095 329.712,245.243 330.170,243.596 330.423 C 241.948 330.676,240.388 331.056,240.129 331.267 C 239.869 331.478,237.912 331.913,235.780 332.233 C 233.648 332.553,231.070 333.072,230.052 333.385 C 228.196 333.955,220.405 334.843,217.140 334.856 C 215.123 334.864,214.420 335.120,209.238 337.741 C 201.970 341.415,197.818 343.676,194.200 345.930 C 193.100 346.615,191.320 347.676,190.244 348.288 C 187.586 349.800,187.467 349.874,183.387 352.569 C 180.429 354.522,169.506 362.481,168.800 363.197 C 161.988 370.108,158.344 372.647,157.732 370.909 C 157.595 370.519,157.149 369.445,156.741 368.522 C 156.333 367.599,156.000 366.574,156.000 366.243 C 156.000 365.913,155.550 364.796,155.000 363.762 C 154.450 362.727,153.994 361.503,153.987 361.040 C 153.981 360.578,153.532 359.300,152.991 358.200 C 152.450 357.100,152.006 355.908,152.004 355.551 C 152.002 355.194,151.637 354.081,151.194 353.079 L 150.387 351.256 152.217 347.328 C 153.223 345.168,154.381 342.760,154.790 341.978 C 155.200 341.195,155.664 339.845,155.821 338.978 C 155.979 338.110,156.429 336.762,156.821 335.981 C 157.213 335.201,157.651 333.851,157.794 332.981 C 157.938 332.112,158.397 330.410,158.815 329.200 C 159.232 327.990,159.753 325.650,159.972 324.000 C 160.191 322.350,160.639 320.114,160.967 319.032 C 161.844 316.133,160.942 315.837,156.094 317.433 C 155.156 317.742,153.086 318.196,151.494 318.442 C 149.902 318.688,147.970 319.208,147.200 319.597 C 146.430 319.986,145.045 320.430,144.123 320.583 C 143.201 320.737,142.234 321.118,141.974 321.431 C 141.695 321.767,140.773 322.000,139.722 322.000 C 136.771 322.000,134.806 323.299,129.052 329.052 C 124.487 333.618,124.530 333.567,122.970 336.200 C 122.318 337.300,121.562 338.560,121.290 339.000 C 121.018 339.440,120.509 340.430,120.159 341.200 C 119.809 341.970,119.180 343.266,118.761 344.079 C 118.343 344.893,118.000 345.832,118.000 346.165 C 118.000 347.335,115.481 349.623,112.125 351.503 C 110.262 352.546,108.412 353.587,108.014 353.815 C 107.277 354.237,104.675 355.930,102.716 357.263 C 102.120 357.668,101.531 358.000,101.407 358.000 C 101.282 358.000,100.240 358.635,99.090 359.411 C 96.454 361.191,96.263 361.316,93.600 362.989 C 92.390 363.750,90.338 365.144,89.039 366.086 C 87.741 367.029,85.581 368.571,84.239 369.514 C 79.658 372.734,78.999 373.198,77.733 374.099 C 66.773 381.895,48.000 397.891,48.000 399.432 C 48.000 399.922,68.036 400.000,193.200 400.000 C 292.746 400.000,338.400 399.870,338.400 399.587 C 338.400 398.626,337.210 396.502,335.943 395.200 C 335.194 394.430,333.086 392.000,331.259 389.800 C 329.432 387.600,327.621 385.440,327.235 385.000 C 326.849 384.560,325.378 382.851,323.966 381.203 C 322.555 379.554,321.130 377.920,320.800 377.572 C 319.744 376.459,317.044 373.442,315.600 371.763 C 314.830 370.868,313.300 369.084,312.200 367.800 C 311.100 366.516,309.660 364.898,309.000 364.204 C 306.379 361.449,300.341 354.805,299.010 353.212 C 297.829 351.799,297.600 351.214,297.600 349.614 C 297.600 348.564,297.150 345.532,296.600 342.878 C 296.050 340.223,295.599 337.634,295.598 337.125 C 295.596 336.616,295.325 335.681,294.994 335.048 C 294.664 334.414,294.120 332.717,293.786 331.275 C 293.451 329.834,292.989 328.428,292.759 328.150 C 292.528 327.873,292.076 326.517,291.755 325.137 C 291.433 323.758,290.927 322.353,290.631 322.015 C 290.335 321.677,289.810 320.408,289.463 319.196 C 288.402 315.482,285.916 314.635,273.600 313.791 C 268.870 313.467,264.861 313.202,264.691 313.201 C 264.522 313.201,264.183 313.638,263.939 314.173 " stroke="none" fill="#b8c9d1" fill-rule="evenodd"></path><path id="path2" d="M219.341 15.997 C 218.868 16.188,218.363 16.537,218.217 16.772 C 217.873 17.330,218.031 17.313,219.688 16.621 C 221.211 15.985,222.592 16.167,223.758 17.156 C 224.398 17.699,224.487 17.706,224.327 17.200 C 223.911 15.887,221.223 15.238,219.341 15.997 M212.344 18.387 C 211.132 19.396,211.438 19.400,213.400 18.400 C 214.540 17.819,214.740 17.600,214.129 17.600 C 213.667 17.600,212.864 17.954,212.344 18.387 M224.520 20.000 C 224.520 21.210,224.595 21.705,224.687 21.100 C 224.778 20.495,224.778 19.505,224.687 18.900 C 224.595 18.295,224.520 18.790,224.520 20.000 M207.144 20.387 C 206.625 20.819,206.414 21.179,206.676 21.187 C 206.938 21.194,207.272 21.007,207.417 20.772 C 207.563 20.537,208.068 20.188,208.541 19.997 C 209.157 19.749,209.215 19.644,208.744 19.625 C 208.384 19.611,207.664 19.954,207.144 20.387 M202.354 22.340 C 201.829 22.747,201.130 23.183,200.800 23.309 C 200.470 23.434,200.415 23.551,200.679 23.568 C 200.942 23.586,202.004 23.150,203.038 22.600 C 204.254 21.954,204.634 21.600,204.114 21.600 C 203.670 21.600,202.879 21.933,202.354 22.340 M224.032 22.913 C 224.014 23.304,223.730 23.729,223.400 23.855 C 223.070 23.982,222.800 24.286,222.800 24.532 C 222.800 24.777,223.181 24.597,223.647 24.131 C 224.113 23.665,224.397 23.040,224.279 22.742 C 224.132 22.373,224.053 22.428,224.032 22.913 M198.300 24.032 C 197.915 24.256,197.600 24.639,197.600 24.882 C 197.600 25.141,197.890 25.071,198.300 24.714 C 198.685 24.379,199.270 24.005,199.600 23.884 C 200.133 23.688,200.133 23.661,199.600 23.644 C 199.270 23.633,198.685 23.808,198.300 24.032 M232.941 23.976 C 232.468 24.178,231.963 24.537,231.817 24.772 C 231.464 25.344,231.693 25.312,233.054 24.602 C 234.547 23.824,236.521 23.840,238.120 24.643 C 239.343 25.258,239.370 25.256,238.720 24.578 C 237.942 23.766,234.311 23.388,232.941 23.976 M240.541 26.025 C 241.118 26.479,241.862 27.239,242.195 27.714 C 242.528 28.189,242.800 28.340,242.800 28.049 C 242.800 27.442,240.521 25.200,239.904 25.200 C 239.677 25.200,239.964 25.571,240.541 26.025 M194.229 26.229 C 193.277 27.180,193.476 27.428,194.500 26.566 C 194.995 26.150,195.475 25.762,195.567 25.704 C 195.658 25.647,195.536 25.600,195.295 25.600 C 195.054 25.600,194.574 25.883,194.229 26.229 M227.144 26.387 C 225.902 27.422,226.576 27.434,227.891 26.400 C 228.450 25.960,228.724 25.600,228.498 25.600 C 228.273 25.600,227.664 25.954,227.144 26.387 M243.328 30.320 C 243.686 30.716,244.161 31.751,244.383 32.620 L 244.786 34.200 244.576 32.420 C 244.361 30.606,243.830 29.600,243.089 29.600 C 242.862 29.600,242.969 29.924,243.328 30.320 M184.487 32.300 C 183.868 32.905,183.730 33.110,184.181 32.755 C 184.631 32.400,185.360 31.910,185.800 31.667 C 186.240 31.423,186.378 31.219,186.106 31.212 C 185.835 31.205,185.106 31.695,184.487 32.300 M181.275 34.600 C 180.797 35.150,180.518 35.600,180.657 35.600 C 180.795 35.600,181.325 35.150,181.835 34.600 C 182.345 34.050,182.623 33.600,182.453 33.600 C 182.283 33.600,181.753 34.050,181.275 34.600 M244.800 35.471 C 244.800 35.674,244.993 36.033,245.228 36.268 C 245.464 36.504,245.898 37.575,246.192 38.648 C 246.487 39.722,246.744 40.240,246.762 39.800 C 246.816 38.519,246.038 36.130,245.393 35.594 C 245.067 35.324,244.800 35.268,244.800 35.471 M175.434 39.642 C 173.105 41.865,171.200 43.885,171.200 44.129 C 171.200 44.374,172.645 43.016,174.411 41.111 C 176.177 39.206,177.932 37.548,178.312 37.428 C 178.917 37.236,180.282 35.600,179.837 35.600 C 179.744 35.600,177.762 37.419,175.434 39.642 M248.800 44.533 C 248.800 44.660,249.250 45.214,249.800 45.764 C 250.728 46.692,251.166 46.715,250.494 45.800 C 250.059 45.208,248.800 44.266,248.800 44.533 M170.100 45.560 C 169.715 45.977,168.950 46.983,168.400 47.795 C 167.850 48.607,166.881 49.891,166.247 50.649 C 165.612 51.407,165.175 52.108,165.274 52.208 C 165.374 52.307,165.983 51.658,166.628 50.766 C 167.272 49.874,168.575 48.166,169.522 46.972 C 171.181 44.880,171.544 43.993,170.100 45.560 M252.327 48.200 C 252.981 48.750,253.670 49.200,253.858 49.200 C 254.046 49.199,253.677 48.749,253.038 48.200 C 252.399 47.650,251.710 47.200,251.507 47.200 C 251.304 47.200,251.673 47.650,252.327 48.200 M256.259 49.997 C 256.732 50.188,257.237 50.537,257.383 50.772 C 257.528 51.007,257.862 51.194,258.124 51.187 C 258.386 51.179,258.175 50.819,257.656 50.387 C 257.136 49.954,256.416 49.611,256.056 49.625 C 255.585 49.644,255.643 49.749,256.259 49.997 M263.726 51.972 C 264.345 52.177,265.114 52.563,265.435 52.829 C 265.756 53.096,266.109 53.224,266.219 53.114 C 266.593 52.740,265.329 52.006,263.962 51.802 C 262.674 51.610,262.661 51.619,263.726 51.972 M163.944 53.566 C 163.425 53.987,163.104 54.436,163.232 54.564 C 163.359 54.692,163.886 54.348,164.401 53.798 C 165.515 52.613,165.272 52.490,163.944 53.566 M270.867 54.550 C 271.850 55.072,273.091 55.637,273.627 55.805 C 274.162 55.973,275.029 56.445,275.554 56.855 C 276.946 57.942,277.464 57.768,276.131 56.661 C 275.509 56.144,274.471 55.592,273.824 55.434 C 273.178 55.276,272.160 54.799,271.563 54.373 C 270.965 53.948,270.162 53.600,269.779 53.600 C 269.395 53.600,269.885 54.027,270.867 54.550 M161.711 55.700 C 161.030 56.581,160.717 57.430,161.370 56.624 C 161.717 56.197,162.225 55.704,162.500 55.530 C 162.827 55.322,162.844 55.210,162.549 55.206 C 162.301 55.203,161.924 55.425,161.711 55.700 M159.800 57.506 C 159.580 57.668,159.135 58.160,158.812 58.600 C 158.378 59.191,158.509 59.146,159.312 58.430 C 160.291 57.558,160.589 57.188,160.300 57.206 C 160.245 57.209,160.020 57.344,159.800 57.506 M280.281 60.161 C 280.677 60.689,281.060 61.065,281.132 60.995 C 281.382 60.756,280.372 59.200,279.967 59.200 C 279.745 59.200,279.886 59.632,280.281 60.161 M155.882 60.500 C 155.313 60.995,154.432 61.717,153.924 62.104 C 153.268 62.603,153.420 62.572,154.444 61.997 C 155.758 61.260,157.611 59.600,157.120 59.600 C 157.008 59.600,156.451 60.005,155.882 60.500 M282.800 63.445 C 282.800 63.606,283.093 64.061,283.452 64.457 C 283.810 64.853,284.236 66.217,284.399 67.489 C 284.675 69.641,284.699 69.682,284.748 68.087 C 284.802 66.324,284.020 63.907,283.241 63.425 C 282.998 63.275,282.800 63.284,282.800 63.445 M150.177 64.167 C 149.750 64.479,149.507 64.840,149.636 64.970 C 149.766 65.099,150.198 64.844,150.598 64.402 C 151.448 63.463,151.273 63.366,150.177 64.167 M143.000 68.400 C 142.602 68.840,142.411 69.200,142.575 69.200 C 142.739 69.200,143.331 68.840,143.891 68.400 C 144.545 67.885,144.697 67.600,144.316 67.600 C 143.990 67.600,143.398 67.960,143.000 68.400 M139.777 70.167 C 139.350 70.479,139.107 70.840,139.236 70.970 C 139.366 71.099,139.798 70.844,140.198 70.402 C 141.048 69.463,140.873 69.366,139.777 70.167 M136.200 72.400 C 135.369 73.060,134.873 73.600,135.096 73.600 C 135.319 73.600,135.749 73.302,136.051 72.939 C 136.353 72.575,137.140 72.042,137.800 71.754 C 138.460 71.467,138.710 71.224,138.355 71.216 C 138.000 71.207,137.031 71.740,136.200 72.400 M133.000 74.400 C 132.602 74.840,132.394 75.200,132.538 75.200 C 132.682 75.200,133.160 74.840,133.600 74.400 C 134.040 73.960,134.248 73.600,134.062 73.600 C 133.876 73.600,133.398 73.960,133.000 74.400 M130.487 76.300 C 129.530 77.235,129.514 77.281,130.381 76.606 C 132.088 75.276,132.169 75.200,131.886 75.200 C 131.736 75.200,131.106 75.695,130.487 76.300 M284.557 81.600 C 284.557 84.570,284.620 85.785,284.697 84.300 C 284.774 82.815,284.774 80.385,284.697 78.900 C 284.620 77.415,284.557 78.630,284.557 81.600 M127.388 78.700 L 126.685 79.800 127.742 78.830 C 128.886 77.782,128.990 77.600,128.446 77.600 C 128.251 77.600,127.775 78.095,127.388 78.700 M124.762 81.107 C 123.972 81.928,123.169 82.869,122.979 83.197 C 122.620 83.816,124.985 81.502,125.949 80.290 C 126.880 79.120,126.273 79.538,124.762 81.107 M205.000 85.694 C 203.361 86.360,201.807 86.541,196.400 86.698 C 190.360 86.872,189.721 86.961,188.868 87.744 C 188.096 88.453,187.341 88.623,184.468 88.732 C 182.305 88.814,180.849 89.052,180.600 89.366 C 179.862 90.294,178.466 90.800,176.644 90.800 C 175.249 90.800,174.608 91.028,173.836 91.800 C 173.034 92.602,172.438 92.800,170.818 92.800 C 169.312 92.800,168.800 92.949,168.800 93.386 C 168.800 94.144,167.557 94.800,166.121 94.800 C 165.331 94.800,164.870 95.072,164.595 95.700 C 164.323 96.319,163.792 96.639,162.892 96.726 C 162.039 96.808,161.363 97.190,160.946 97.826 C 160.595 98.362,159.981 98.800,159.581 98.800 C 159.181 98.800,158.743 99.151,158.606 99.580 C 158.470 100.008,158.000 100.473,157.561 100.612 C 156.658 100.899,155.947 101.503,152.725 104.725 C 149.450 108.001,148.882 108.677,148.731 109.482 C 148.656 109.877,148.191 110.378,147.698 110.595 C 147.074 110.869,146.800 111.333,146.800 112.114 C 146.800 112.799,146.410 113.600,145.800 114.165 C 145.091 114.822,144.800 115.510,144.800 116.530 C 144.800 117.523,144.505 118.251,143.845 118.884 C 142.997 119.696,142.868 120.244,142.699 123.728 C 142.544 126.919,142.348 127.874,141.654 128.812 C 140.726 130.068,140.262 162.800,141.173 162.800 C 141.377 162.800,141.630 164.465,141.734 166.500 C 141.838 168.535,142.101 173.620,142.320 177.800 C 142.720 185.432,142.580 186.800,141.404 186.800 C 140.521 186.800,140.259 189.237,140.547 194.768 C 140.691 197.536,140.977 202.950,141.183 206.800 C 141.707 216.577,141.706 231.087,141.182 231.411 C 140.154 232.047,139.733 230.638,139.216 224.832 L 138.683 218.838 137.533 218.585 C 134.023 217.814,132.190 219.277,131.723 223.222 C 131.470 225.358,130.800 225.945,130.800 224.029 C 130.800 223.256,130.460 222.590,129.800 222.071 C 129.250 221.639,128.800 220.987,128.800 220.623 C 128.800 219.720,127.671 217.600,127.190 217.600 C 126.975 217.600,126.800 216.962,126.800 216.182 C 126.800 215.202,126.491 214.454,125.800 213.764 C 125.051 213.015,124.800 212.341,124.799 211.082 C 124.798 210.127,124.463 208.853,124.025 208.134 C 123.514 207.296,123.104 205.474,122.811 202.734 C 122.567 200.460,122.166 197.814,121.919 196.852 C 121.530 195.341,121.559 195.055,122.135 194.733 C 122.501 194.528,122.800 193.989,122.800 193.536 C 122.800 191.876,130.539 194.379,132.340 196.621 C 132.703 197.073,133.332 197.569,133.738 197.723 C 134.144 197.878,134.564 198.342,134.672 198.756 C 135.143 200.557,136.511 199.229,136.233 197.241 C 135.985 195.474,135.266 189.701,135.222 189.120 C 135.210 188.966,134.188 188.786,132.950 188.720 L 130.700 188.600 129.972 186.800 C 129.512 185.661,129.236 185.308,129.222 185.839 C 129.201 186.651,127.756 187.520,125.286 188.208 C 118.907 189.985,117.960 199.213,122.906 211.400 C 129.676 228.080,134.619 234.518,140.479 234.289 C 143.536 234.170,143.503 234.104,144.006 241.403 C 144.248 244.921,144.713 249.060,145.039 250.600 C 145.365 252.140,145.813 254.342,146.035 255.493 C 147.337 262.255,152.600 270.547,160.953 279.000 L 164.115 282.200 163.849 291.600 C 163.666 298.082,163.271 303.297,162.578 308.400 C 162.024 312.470,161.512 316.250,161.440 316.800 C 161.367 317.350,161.031 318.880,160.691 320.200 C 160.352 321.520,159.950 323.673,159.798 324.985 C 159.646 326.297,159.204 328.187,158.817 329.185 C 158.430 330.183,157.993 331.782,157.846 332.737 C 157.699 333.692,157.248 335.132,156.843 335.937 C 156.439 336.742,155.979 338.110,155.821 338.978 C 155.664 339.845,155.200 341.195,154.790 341.978 C 154.381 342.760,153.223 345.168,152.217 347.328 L 150.387 351.256 151.194 353.079 C 151.637 354.081,152.002 355.194,152.004 355.551 C 152.006 355.908,152.450 357.100,152.991 358.200 C 153.532 359.300,153.981 360.578,153.987 361.040 C 153.994 361.503,154.450 362.727,155.000 363.762 C 155.550 364.796,156.000 365.913,156.000 366.243 C 156.000 366.574,156.333 367.599,156.741 368.522 C 157.149 369.445,157.595 370.519,157.732 370.909 C 158.344 372.647,161.988 370.108,168.800 363.197 C 169.506 362.481,180.429 354.522,183.387 352.569 C 187.467 349.874,187.586 349.800,190.244 348.288 C 191.320 347.676,193.100 346.615,194.200 345.930 C 197.818 343.676,201.970 341.415,209.238 337.741 C 214.420 335.120,215.123 334.864,217.140 334.856 C 220.405 334.843,228.196 333.955,230.052 333.385 C 231.070 333.072,233.648 332.553,235.780 332.233 C 237.912 331.913,239.869 331.478,240.129 331.267 C 240.388 331.056,241.948 330.676,243.596 330.423 C 245.243 330.170,247.095 329.712,247.710 329.405 C 248.325 329.099,250.216 328.625,251.914 328.353 C 253.611 328.081,255.271 327.632,255.603 327.355 C 255.935 327.078,257.555 326.570,259.203 326.227 C 263.763 325.278,264.244 324.769,264.005 321.149 C 263.834 318.560,263.834 316.238,264.007 313.100 C 264.034 312.605,263.759 311.030,263.397 309.600 C 262.896 307.626,262.685 304.297,262.518 295.769 L 262.299 284.537 266.562 280.169 C 273.283 273.280,282.000 258.642,282.000 254.244 C 282.000 253.947,282.370 252.556,282.822 251.152 C 283.275 249.748,283.808 247.250,284.007 245.600 C 284.206 243.950,284.645 240.440,284.981 237.800 C 285.318 235.160,285.595 231.158,285.597 228.908 C 285.600 224.333,285.273 224.791,288.976 224.191 C 290.625 223.923,292.538 222.238,293.630 220.089 C 293.935 219.490,294.572 218.460,295.045 217.800 C 295.519 217.140,296.041 216.150,296.204 215.600 C 296.368 215.050,296.784 214.060,297.130 213.400 C 298.674 210.456,301.430 202.429,302.762 197.000 C 305.578 185.518,304.555 180.821,298.600 177.894 C 297.280 177.246,295.930 176.580,295.600 176.415 C 295.107 176.168,294.962 174.659,294.787 167.957 L 294.575 159.800 294.487 167.667 C 294.379 177.388,294.591 176.800,291.196 176.800 C 287.781 176.800,287.600 177.175,287.600 184.260 C 287.600 188.933,287.643 189.200,288.400 189.200 C 288.840 189.200,289.200 189.013,289.200 188.784 C 289.200 188.556,290.108 187.474,291.219 186.382 C 295.418 182.248,300.633 181.012,301.269 184.000 C 301.774 186.365,301.167 199.200,300.551 199.200 C 299.699 199.200,299.200 200.599,299.200 202.986 C 299.200 204.559,299.030 205.290,298.628 205.445 C 297.915 205.718,297.200 207.703,297.200 209.411 C 297.200 210.271,296.925 210.886,296.375 211.251 C 295.844 211.604,295.469 212.404,295.323 213.492 C 295.032 215.672,294.578 215.367,294.232 212.758 C 293.769 209.268,291.492 207.743,288.100 208.652 C 287.322 208.860,287.200 209.159,287.200 210.847 C 287.200 212.639,287.121 212.800,286.245 212.800 C 284.997 212.800,284.897 212.223,284.411 202.193 C 284.198 197.797,283.843 193.120,283.623 191.800 C 282.766 186.668,282.400 183.557,282.400 181.418 C 282.400 179.166,282.207 178.620,280.450 175.891 C 279.504 174.421,279.474 174.128,279.292 164.491 C 279.142 156.558,278.989 154.467,278.518 153.930 C 277.702 153.000,277.229 148.787,277.213 142.323 C 277.201 137.445,277.106 136.686,276.337 135.383 C 275.587 134.112,275.449 133.137,275.283 127.960 C 275.177 124.682,274.965 122.000,274.810 122.000 C 274.083 122.000,273.490 119.410,273.299 115.400 C 273.155 112.358,272.927 110.904,272.561 110.689 C 271.840 110.265,271.205 107.813,271.202 105.446 C 271.200 103.877,271.003 103.309,270.200 102.565 C 269.508 101.923,269.200 101.216,269.200 100.266 C 269.200 99.213,269.007 98.843,268.370 98.676 C 267.914 98.557,267.447 98.103,267.333 97.667 C 267.219 97.231,266.769 96.781,266.333 96.667 C 265.897 96.553,265.443 96.086,265.324 95.630 C 265.179 95.077,264.782 94.800,264.135 94.800 C 263.601 94.800,262.714 94.350,262.164 93.800 C 261.614 93.250,260.714 92.800,260.164 92.800 C 259.614 92.800,258.714 92.350,258.164 91.800 C 257.429 91.065,256.738 90.800,255.556 90.800 C 253.921 90.800,252.523 90.269,251.800 89.374 C 251.558 89.074,249.997 88.811,247.839 88.708 C 244.862 88.565,244.170 88.403,243.617 87.721 C 243.010 86.971,242.392 86.889,235.978 86.712 C 230.091 86.549,228.656 86.384,226.800 85.660 C 223.581 84.402,208.119 84.427,205.000 85.694 M118.264 89.129 C 117.305 90.189,117.446 90.554,118.433 89.567 C 118.892 89.108,119.191 88.657,119.098 88.564 C 119.005 88.471,118.630 88.725,118.264 89.129 M287.505 89.483 C 288.002 89.579,288.722 89.575,289.105 89.475 C 289.487 89.375,289.080 89.296,288.200 89.301 C 287.320 89.305,287.007 89.387,287.505 89.483 M291.978 90.041 C 292.517 90.256,293.237 90.647,293.578 90.909 C 293.926 91.176,293.864 90.992,293.438 90.493 C 293.019 90.002,292.299 89.611,291.838 89.625 C 291.074 89.648,291.086 89.685,291.978 90.041 M115.989 92.821 C 115.747 93.272,115.606 93.877,115.675 94.165 C 115.744 94.452,116.092 94.083,116.449 93.344 C 117.142 91.910,116.728 91.440,115.989 92.821 M296.800 94.257 C 296.800 94.458,297.108 95.062,297.485 95.600 C 297.862 96.138,298.303 97.303,298.466 98.189 L 298.763 99.800 298.634 97.930 C 298.527 96.381,296.800 92.922,296.800 94.257 M114.489 96.893 C 114.255 97.174,113.942 97.943,113.791 98.602 C 113.547 99.675,113.606 99.636,114.353 98.227 C 115.198 96.635,115.267 95.955,114.489 96.893 M113.320 104.400 C 113.320 105.610,113.395 106.105,113.487 105.500 C 113.578 104.895,113.578 103.905,113.487 103.300 C 113.395 102.695,113.320 103.190,113.320 104.400 M113.634 109.456 C 113.615 109.926,113.915 110.655,114.300 111.075 C 114.685 111.494,114.853 111.616,114.672 111.344 C 114.492 111.073,114.192 110.345,114.007 109.726 C 113.733 108.813,113.662 108.762,113.634 109.456 M298.399 111.700 C 298.399 112.855,298.129 115.240,297.800 117.000 C 296.775 122.471,296.762 122.663,297.581 120.276 C 298.354 118.021,299.205 109.600,298.659 109.600 C 298.517 109.600,298.400 110.545,298.399 111.700 M115.600 115.107 C 115.600 115.310,115.960 115.802,116.400 116.200 C 116.840 116.598,117.214 117.211,117.232 117.562 C 117.252 117.978,117.333 118.026,117.466 117.698 C 117.577 117.422,117.203 116.643,116.634 115.967 C 116.065 115.292,115.600 114.905,115.600 115.107 M117.944 119.078 C 118.454 120.050,119.200 120.649,119.200 120.086 C 119.200 119.887,118.814 119.381,118.342 118.962 C 117.490 118.205,117.487 118.206,117.944 119.078 M119.600 122.302 C 119.600 122.800,121.168 124.739,121.187 124.263 C 121.194 124.078,120.840 123.469,120.400 122.909 C 119.960 122.350,119.600 122.076,119.600 122.302 M121.324 127.400 C 121.326 128.720,121.401 129.212,121.490 128.493 C 121.579 127.774,121.577 126.694,121.486 126.093 C 121.395 125.492,121.322 126.080,121.324 127.400 M200.720 129.247 C 200.785 130.870,201.010 132.370,201.220 132.580 C 201.722 133.082,201.708 135.086,201.200 135.400 C 200.980 135.536,200.800 136.885,200.800 138.398 C 200.800 139.910,200.641 141.567,200.446 142.080 C 200.196 142.737,200.284 143.381,200.746 144.262 C 201.106 144.950,202.075 146.802,202.900 148.378 C 203.725 149.954,204.401 151.459,204.402 151.722 C 204.404 151.985,204.698 152.740,205.055 153.400 C 205.753 154.687,206.954 159.687,207.634 164.137 C 208.280 168.369,207.538 175.802,206.221 178.276 C 205.659 179.331,205.200 180.780,205.200 181.497 L 205.200 182.800 200.900 182.860 C 198.535 182.893,197.095 182.995,197.700 183.087 C 198.558 183.216,198.800 183.471,198.800 184.239 C 198.800 185.488,197.075 186.335,196.877 185.184 C 196.724 184.299,195.641 183.827,195.372 184.528 C 195.264 184.811,195.466 185.740,195.823 186.593 C 196.512 188.243,196.696 192.804,196.130 194.235 C 195.101 196.841,188.800 201.124,188.800 199.218 C 188.800 199.008,188.358 199.278,187.818 199.818 C 187.242 200.394,186.372 200.800,185.714 200.800 C 185.026 200.800,184.400 201.109,184.093 201.600 C 183.734 202.175,183.160 202.400,182.051 202.400 C 181.114 202.400,180.109 202.086,179.491 201.600 C 178.276 200.644,177.765 200.594,177.455 201.400 C 176.724 203.307,167.855 200.571,163.556 197.112 C 159.428 193.791,159.568 186.160,163.849 181.069 C 164.372 180.447,164.785 179.637,164.768 179.269 C 164.745 178.807,164.590 178.910,164.268 179.602 C 163.412 181.436,163.132 181.737,162.795 181.191 C 162.387 180.532,161.600 181.059,161.600 181.991 C 161.600 183.475,161.177 184.016,160.360 183.579 C 159.386 183.057,159.391 181.817,160.373 180.437 C 160.799 179.840,161.204 178.552,161.273 177.576 C 161.372 176.186,161.596 175.714,162.300 175.405 C 164.220 174.563,162.371 170.800,160.038 170.800 C 157.278 170.800,153.501 164.750,155.155 162.980 C 156.024 162.049,156.074 160.800,155.241 160.800 C 153.480 160.800,152.810 154.712,154.355 152.748 C 154.932 152.014,155.144 150.956,155.255 148.259 C 155.382 145.178,155.515 144.637,156.300 144.001 C 156.821 143.578,157.200 142.828,157.200 142.218 C 157.200 141.636,157.634 140.730,158.169 140.195 C 158.702 139.662,159.251 138.869,159.389 138.433 C 159.528 137.997,159.983 137.533,160.400 137.400 C 160.817 137.267,161.270 136.809,161.406 136.380 C 161.542 135.952,162.074 135.496,162.589 135.367 C 163.103 135.238,163.613 134.793,163.722 134.377 C 163.858 133.856,164.424 133.542,165.548 133.362 C 166.600 133.194,167.257 132.851,167.402 132.394 C 167.637 131.652,168.732 131.215,170.374 131.205 C 170.910 131.202,171.776 130.798,172.300 130.306 C 173.071 129.581,173.826 129.384,176.306 129.259 C 178.601 129.143,179.641 128.898,180.485 128.274 C 181.434 127.572,182.343 127.417,186.342 127.275 C 192.482 127.056,192.790 127.210,192.832 130.514 C 192.864 133.101,192.968 133.155,193.378 130.800 C 193.680 129.071,196.258 126.084,197.842 125.629 C 199.929 125.030,200.582 125.851,200.720 129.247 M296.542 129.400 C 296.541 131.380,296.608 132.240,296.692 131.312 C 296.776 130.384,296.777 128.764,296.695 127.712 C 296.612 126.660,296.543 127.420,296.542 129.400 M120.489 131.293 C 120.255 131.574,119.942 132.343,119.791 133.002 C 119.547 134.075,119.606 134.036,120.353 132.627 C 121.198 131.035,121.267 130.355,120.489 131.293 M295.864 137.395 C 295.725 139.042,295.519 141.157,295.406 142.095 C 295.220 143.641,295.238 143.688,295.603 142.600 C 296.042 141.287,296.643 134.400,296.319 134.400 C 296.208 134.400,296.003 135.748,295.864 137.395 M250.026 135.614 C 250.452 135.842,250.800 136.292,250.800 136.614 C 250.800 136.936,251.152 137.200,251.581 137.200 C 252.559 137.200,254.400 138.019,254.400 138.454 C 254.400 138.633,254.940 139.059,255.600 139.400 C 256.260 139.741,256.800 140.265,256.800 140.564 C 256.800 140.862,257.173 141.204,257.630 141.324 C 258.086 141.443,258.553 141.897,258.667 142.333 C 258.781 142.769,259.231 143.219,259.667 143.333 C 260.103 143.447,260.555 143.908,260.673 144.357 C 260.790 144.806,261.218 145.279,261.623 145.407 C 262.028 145.536,262.463 145.970,262.591 146.372 C 262.719 146.773,263.267 147.619,263.811 148.251 C 264.354 148.883,264.799 149.773,264.800 150.228 C 264.800 150.683,265.250 151.447,265.800 151.925 C 266.807 152.801,267.242 156.383,266.557 158.167 C 266.171 159.173,263.293 159.034,263.128 158.001 C 263.018 157.314,262.693 157.489,260.800 159.254 C 259.590 160.381,257.843 161.646,256.918 162.063 C 255.993 162.480,254.725 163.251,254.101 163.776 C 253.477 164.301,252.434 164.809,251.783 164.905 C 250.855 165.042,250.969 165.093,252.310 165.140 C 253.723 165.190,254.084 165.368,254.388 166.169 C 254.602 166.731,255.145 167.194,255.678 167.269 C 256.269 167.353,256.645 167.714,256.725 168.275 C 256.801 168.809,257.180 169.199,257.698 169.275 C 258.226 169.353,258.654 169.805,258.831 170.471 C 258.987 171.061,259.495 171.950,259.958 172.447 C 260.512 173.042,260.800 173.878,260.800 174.892 C 260.800 175.842,261.130 176.879,261.663 177.599 C 262.378 178.567,262.438 178.872,262.014 179.383 C 261.335 180.201,260.801 180.165,260.794 179.300 C 260.784 178.228,260.204 177.547,259.522 177.808 C 258.983 178.015,258.999 178.221,259.654 179.507 C 260.064 180.311,260.400 181.179,260.400 181.436 C 260.400 181.692,260.670 182.126,261.000 182.400 C 262.510 183.653,260.905 187.200,257.426 190.300 C 255.101 192.372,253.133 192.414,254.431 190.364 C 254.627 190.054,254.779 189.530,254.769 189.200 C 254.757 188.855,254.599 188.974,254.395 189.480 C 254.200 189.963,253.749 190.683,253.391 191.080 C 252.029 192.590,250.801 194.212,250.800 194.500 C 250.800 194.665,250.534 194.800,250.209 194.800 C 249.884 194.800,249.314 195.264,248.943 195.831 C 248.000 197.271,239.125 197.206,237.531 195.749 C 237.019 195.280,236.125 194.650,235.544 194.349 C 234.963 194.047,233.838 193.018,233.044 192.062 C 232.250 191.106,231.603 190.566,231.606 190.862 C 231.615 191.618,232.082 192.215,232.900 192.517 C 233.575 192.766,233.859 194.008,233.355 194.512 C 232.585 195.281,228.795 190.723,228.273 188.400 C 227.697 185.840,229.075 183.539,229.711 186.000 C 230.077 187.420,230.774 188.560,231.085 188.249 C 231.179 188.155,231.067 187.745,230.837 187.339 C 230.607 186.933,230.229 185.842,229.998 184.917 C 229.696 183.704,229.273 183.088,228.489 182.713 C 226.805 181.908,226.749 177.924,228.414 177.396 C 229.055 177.192,229.200 176.783,229.200 175.173 C 229.200 173.335,229.268 173.200,230.200 173.200 C 230.815 173.200,231.200 172.973,231.200 172.610 C 231.200 172.142,230.988 172.100,230.174 172.410 C 229.610 172.624,227.307 172.800,225.056 172.800 L 220.965 172.800 220.467 170.500 C 219.850 167.656,220.361 161.762,221.346 160.356 C 221.706 159.842,222.000 159.144,222.000 158.805 C 222.000 158.466,222.360 157.516,222.800 156.696 C 223.807 154.816,223.806 154.800,222.591 154.800 C 221.904 154.800,221.438 154.482,221.127 153.800 C 220.877 153.250,220.450 152.800,220.179 152.800 C 219.556 152.800,219.200 151.887,219.200 150.293 C 219.200 149.588,218.842 148.671,218.371 148.170 C 217.732 147.488,217.543 146.764,217.543 144.987 C 217.543 141.946,218.099 141.400,221.194 141.400 C 224.010 141.400,224.476 141.772,224.828 144.302 L 225.093 146.200 225.147 144.360 C 225.247 140.890,226.444 139.200,228.799 139.200 C 229.218 139.200,229.704 138.956,229.880 138.658 C 230.422 137.740,231.864 137.200,233.774 137.200 C 234.781 137.200,235.600 137.012,235.600 136.781 C 235.600 135.409,247.799 134.422,250.026 135.614 M116.223 142.889 C 115.880 143.378,115.615 144.143,115.634 144.589 C 115.660 145.195,115.754 145.116,116.007 144.274 C 116.192 143.655,116.559 142.890,116.821 142.574 C 117.083 142.258,117.196 142.000,117.072 142.000 C 116.947 142.000,116.565 142.400,116.223 142.889 M294.893 145.600 C 294.893 146.370,294.975 146.685,295.076 146.300 C 295.176 145.915,295.176 145.285,295.076 144.900 C 294.975 144.515,294.893 144.830,294.893 145.600 M115.293 148.000 C 115.293 148.770,115.375 149.085,115.476 148.700 C 115.576 148.315,115.576 147.685,115.476 147.300 C 115.375 146.915,115.293 147.230,115.293 148.000 M115.600 151.105 C 115.600 151.563,116.687 152.800,117.091 152.800 C 117.219 152.800,116.983 152.395,116.566 151.900 C 116.150 151.405,115.762 150.925,115.704 150.833 C 115.647 150.742,115.600 150.864,115.600 151.105 M117.600 155.107 C 117.600 155.310,117.960 155.802,118.400 156.200 C 118.840 156.598,119.214 157.211,119.232 157.562 C 119.252 157.978,119.333 158.026,119.466 157.698 C 119.577 157.422,119.203 156.643,118.634 155.967 C 118.065 155.292,117.600 154.905,117.600 155.107 M123.600 167.079 C 123.600 167.615,124.700 169.034,124.933 168.799 C 125.042 168.690,124.787 168.175,124.366 167.656 C 123.945 167.136,123.600 166.877,123.600 167.079 M248.346 172.281 C 247.876 172.860,247.883 172.903,248.400 172.592 C 248.730 172.392,249.540 172.285,250.200 172.353 C 251.602 172.497,251.461 172.223,249.946 171.860 C 249.211 171.684,248.726 171.811,248.346 172.281 M125.600 172.689 C 125.600 172.921,125.971 173.536,126.424 174.056 L 127.247 175.000 126.545 173.800 C 125.620 172.221,125.600 172.197,125.600 172.689 M173.705 174.687 C 174.314 174.779,175.214 174.777,175.705 174.682 C 176.197 174.587,175.700 174.511,174.600 174.514 C 173.500 174.517,173.097 174.595,173.705 174.687 M178.100 174.687 C 178.705 174.778,179.695 174.778,180.300 174.687 C 180.905 174.595,180.410 174.520,179.200 174.520 C 177.990 174.520,177.495 174.595,178.100 174.687 M183.606 175.113 C 183.603 175.395,183.195 175.789,182.700 175.988 C 181.800 176.349,181.800 176.349,182.667 176.375 C 183.143 176.389,183.616 176.625,183.717 176.900 C 183.838 177.232,184.030 177.265,184.288 177.000 C 184.539 176.741,184.489 176.248,184.144 175.600 C 183.851 175.050,183.609 174.831,183.606 175.113 M250.813 174.937 C 250.806 175.122,251.160 175.731,251.600 176.291 C 252.040 176.850,252.400 177.124,252.400 176.898 C 252.400 176.400,250.832 174.461,250.813 174.937 M257.230 175.600 C 257.228 176.176,258.357 178.466,258.386 177.946 C 258.394 177.806,258.137 177.086,257.816 176.346 C 257.494 175.606,257.231 175.270,257.230 175.600 M190.000 179.200 C 190.000 179.420,189.730 179.600,189.400 179.600 C 188.904 179.600,188.922 179.723,189.500 180.305 C 190.168 180.979,190.223 180.968,190.700 180.060 C 191.332 178.858,191.327 178.800,190.600 178.800 C 190.270 178.800,190.000 178.980,190.000 179.200 M192.054 181.006 C 192.634 181.663,193.412 182.802,193.784 183.537 C 194.155 184.273,194.549 184.785,194.658 184.675 C 194.953 184.381,193.053 181.524,191.952 180.606 C 191.109 179.903,191.120 179.949,192.054 181.006 M128.000 181.847 C 128.000 182.067,128.264 182.596,128.587 183.024 C 128.910 183.451,129.175 183.620,129.175 183.400 C 129.175 183.180,128.910 182.651,128.587 182.224 C 128.264 181.796,128.000 181.627,128.000 181.847 M254.377 182.301 C 255.303 183.051,255.572 184.867,255.073 187.000 C 254.824 188.065,254.857 188.043,255.366 186.800 C 256.314 184.484,255.516 181.600,253.927 181.600 C 253.698 181.600,253.901 181.916,254.377 182.301 M193.100 186.088 C 193.720 186.387,194.019 186.908,194.060 187.761 L 194.120 189.000 194.294 187.820 C 194.466 186.655,193.634 185.562,192.624 185.627 C 192.391 185.642,192.605 185.849,193.100 186.088 M168.652 187.700 C 168.301 189.012,168.358 190.514,168.786 191.191 C 169.040 191.592,169.155 190.984,169.147 189.291 C 169.134 186.615,169.031 186.284,168.652 187.700 M194.046 190.411 C 194.021 190.967,193.721 191.820,193.381 192.306 C 192.822 193.104,192.822 193.166,193.384 192.951 C 194.095 192.678,194.561 191.213,194.282 190.132 C 194.145 189.602,194.080 189.680,194.046 190.411 M169.600 194.679 C 169.600 195.215,170.700 196.634,170.933 196.399 C 171.042 196.290,170.787 195.775,170.366 195.256 C 169.945 194.736,169.600 194.477,169.600 194.679 M192.432 194.769 C 192.414 195.081,192.102 195.666,191.738 196.069 C 191.365 196.481,191.271 196.800,191.524 196.800 C 192.105 196.800,192.909 195.296,192.658 194.678 C 192.529 194.362,192.452 194.393,192.432 194.769 M235.607 195.392 C 235.242 195.831,234.921 195.879,234.358 195.578 C 233.285 195.003,233.413 194.800,234.849 194.800 C 235.906 194.800,236.022 194.891,235.607 195.392 M171.460 197.411 C 171.589 197.747,172.078 198.222,172.547 198.465 C 173.332 198.873,173.322 198.824,172.430 197.854 C 171.315 196.642,171.132 196.558,171.460 197.411 M189.900 198.033 C 189.230 198.767,189.235 198.800,190.000 198.800 C 190.533 198.800,190.800 198.533,190.800 198.000 C 190.800 197.052,190.796 197.052,189.900 198.033 M173.600 199.324 C 173.600 200.105,174.802 200.809,176.074 200.775 L 177.000 200.749 176.008 200.354 C 175.463 200.136,174.698 199.669,174.308 199.317 C 173.658 198.729,173.600 198.729,173.600 199.324 M230.000 217.852 C 230.000 219.617,222.753 227.309,219.876 228.600 C 219.385 228.820,218.542 229.315,218.003 229.700 C 216.762 230.586,212.263 230.655,210.800 229.811 C 210.250 229.494,209.350 229.047,208.800 228.817 C 208.250 228.588,207.530 228.218,207.200 227.994 C 206.870 227.771,206.060 227.245,205.400 226.826 C 204.081 225.987,202.865 225.072,201.254 223.706 C 200.674 223.214,199.705 222.436,199.100 221.977 C 198.495 221.518,198.000 220.804,198.000 220.391 C 198.000 219.978,197.685 219.440,197.300 219.196 C 196.700 218.815,196.743 218.779,197.600 218.948 C 200.100 219.440,202.123 220.062,202.926 220.586 C 203.407 220.899,204.700 221.350,205.800 221.587 C 206.900 221.825,208.764 222.315,209.943 222.678 C 211.938 223.291,212.228 223.290,214.143 222.666 C 215.274 222.297,216.978 221.832,217.929 221.634 C 218.879 221.435,219.959 221.017,220.329 220.705 C 220.698 220.393,221.810 219.908,222.800 219.628 C 223.790 219.347,224.851 218.911,225.158 218.659 C 225.789 218.140,228.740 216.904,229.500 216.841 C 229.784 216.818,230.000 217.255,230.000 217.852 M250.893 221.005 C 253.339 222.667,253.871 226.212,251.762 226.791 C 250.640 227.099,248.400 228.872,248.400 229.453 C 248.400 229.729,248.069 230.190,247.663 230.477 C 247.258 230.765,246.712 231.405,246.449 231.900 C 246.187 232.395,245.729 232.800,245.433 232.800 C 245.136 232.800,244.796 233.173,244.676 233.630 C 244.557 234.086,244.086 234.557,243.630 234.676 C 243.173 234.796,242.800 235.136,242.800 235.433 C 242.800 235.729,242.444 236.162,242.009 236.395 C 241.574 236.628,240.789 237.219,240.266 237.709 C 238.115 239.723,234.262 242.223,232.716 242.608 C 232.120 242.757,231.424 243.130,231.170 243.436 C 230.915 243.743,229.963 244.186,229.053 244.421 C 228.144 244.655,226.770 245.139,226.000 245.496 C 223.871 246.482,218.285 246.679,216.965 245.814 L 215.918 245.128 216.976 244.579 C 217.558 244.277,218.701 243.916,219.517 243.778 C 220.333 243.639,221.477 243.190,222.060 242.780 C 222.643 242.371,223.633 241.910,224.260 241.757 C 224.887 241.604,225.909 241.056,226.531 240.539 C 227.153 240.023,227.889 239.600,228.168 239.600 C 228.865 239.600,235.302 234.904,237.762 232.600 C 238.467 231.940,239.664 230.841,240.422 230.159 C 244.628 226.371,246.614 223.449,246.040 221.895 C 245.312 219.929,248.460 219.352,250.893 221.005 M168.542 284.996 C 170.418 286.482,171.248 287.090,172.860 288.156 C 174.678 289.358,182.317 293.600,182.664 293.600 C 182.805 293.600,183.838 294.031,184.960 294.558 C 187.904 295.940,192.313 297.600,193.041 297.600 C 193.384 297.600,194.956 298.038,196.533 298.572 C 198.180 299.131,201.358 299.744,204.000 300.013 C 206.530 300.271,208.706 300.546,208.835 300.624 C 210.090 301.385,227.773 300.149,230.370 299.118 C 230.937 298.893,232.930 298.299,234.800 297.796 C 239.419 296.556,241.921 295.706,243.679 294.779 C 244.493 294.351,245.393 293.995,245.679 293.990 C 245.966 293.984,247.550 293.265,249.200 292.392 C 250.850 291.519,252.958 290.439,253.883 289.991 C 254.809 289.544,255.682 288.991,255.822 288.764 C 255.963 288.537,256.465 288.178,256.939 287.967 C 257.412 287.756,258.520 287.061,259.400 286.424 L 261.000 285.265 261.107 295.514 L 261.214 305.763 258.919 308.081 C 257.658 309.357,256.420 310.400,256.169 310.400 C 255.918 310.400,254.897 311.118,253.900 311.995 C 252.903 312.873,251.303 313.930,250.344 314.344 C 249.385 314.758,248.260 315.476,247.845 315.941 C 246.938 316.954,242.065 319.381,239.723 319.986 C 238.801 320.224,237.028 320.954,235.783 321.609 C 234.537 322.264,232.943 322.800,232.239 322.800 C 231.536 322.800,230.755 323.005,230.504 323.256 C 230.253 323.507,229.092 323.883,227.924 324.091 C 226.756 324.300,224.990 324.644,224.000 324.856 C 219.831 325.751,217.348 325.934,208.997 325.966 C 203.426 325.988,199.682 325.833,198.797 325.546 C 198.029 325.296,196.230 324.957,194.800 324.793 C 193.370 324.628,191.120 324.192,189.800 323.824 C 188.480 323.455,186.950 323.056,186.400 322.937 C 184.676 322.562,183.255 321.922,173.904 317.306 L 164.800 312.812 164.800 299.029 L 164.800 285.245 165.689 284.623 C 166.863 283.800,167.066 283.827,168.542 284.996 " stroke="none" fill="#f3d1b9" fill-rule="evenodd"></path><path id="path3" d="M220.370 16.800 C 220.056 16.971,218.366 17.501,216.614 17.978 C 214.862 18.455,213.242 18.987,213.014 19.160 C 212.786 19.334,211.740 19.708,210.690 19.993 C 209.639 20.277,208.686 20.660,208.573 20.844 C 208.459 21.028,207.609 21.374,206.683 21.613 C 205.107 22.019,197.822 25.327,195.600 26.645 C 195.050 26.971,193.880 27.597,193.000 28.036 C 192.120 28.475,190.765 29.231,189.989 29.717 C 189.213 30.203,187.985 30.960,187.261 31.400 C 184.425 33.123,181.222 35.629,177.200 39.275 C 173.011 43.072,171.908 44.329,167.784 50.000 C 163.899 55.344,157.655 61.010,152.136 64.198 C 151.511 64.560,150.280 65.292,149.400 65.826 C 148.520 66.361,147.080 67.171,146.200 67.626 C 145.320 68.082,143.610 69.066,142.400 69.813 C 141.190 70.560,139.840 71.340,139.400 71.545 C 125.328 78.125,113.391 94.032,114.109 105.247 C 114.380 109.486,115.458 112.175,121.469 123.600 C 122.383 125.338,122.141 130.089,121.000 132.800 C 120.450 134.107,119.999 135.406,119.998 135.688 C 119.996 135.970,119.710 136.740,119.361 137.400 C 118.741 138.572,116.769 144.335,116.255 146.475 C 116.113 147.067,116.158 147.651,116.355 147.772 C 116.552 147.894,116.810 147.410,116.929 146.697 C 117.332 144.277,118.720 139.807,119.562 138.215 C 120.023 137.344,120.400 136.351,120.400 136.009 C 120.400 135.668,120.800 134.671,121.290 133.794 C 122.445 131.724,122.640 123.800,121.566 122.543 C 121.217 122.134,120.684 121.170,120.380 120.400 C 120.077 119.630,119.418 118.390,118.915 117.644 C 118.412 116.898,118.000 116.103,118.000 115.876 C 118.000 115.649,117.754 115.179,117.453 114.831 C 114.209 111.089,114.228 98.069,117.482 93.913 C 117.703 93.631,118.083 92.810,118.325 92.088 C 118.568 91.367,118.999 90.517,119.283 90.200 C 119.568 89.884,120.430 88.687,121.200 87.540 C 122.596 85.462,129.347 78.400,129.938 78.400 C 130.109 78.400,130.615 78.059,131.062 77.643 C 131.509 77.226,132.443 76.591,133.138 76.232 C 133.832 75.873,134.400 75.419,134.400 75.223 C 134.400 75.027,134.805 74.717,135.300 74.533 C 135.795 74.350,137.241 73.570,138.513 72.800 C 142.014 70.680,144.429 69.323,146.206 68.475 C 147.089 68.054,148.056 67.415,148.355 67.055 C 148.653 66.695,149.091 66.400,149.327 66.400 C 149.564 66.400,150.487 65.919,151.378 65.331 C 152.270 64.743,153.719 63.798,154.598 63.231 C 159.918 59.800,167.258 52.971,168.548 50.252 C 168.927 49.453,169.380 48.800,169.555 48.800 C 169.729 48.800,170.059 48.389,170.288 47.886 C 171.073 46.164,180.417 36.405,181.284 36.401 C 181.441 36.401,181.891 36.080,182.284 35.689 C 183.270 34.711,189.764 30.400,190.253 30.400 C 190.471 30.400,190.998 30.085,191.425 29.700 C 192.355 28.860,197.110 26.400,197.802 26.400 C 198.072 26.400,198.721 26.063,199.246 25.652 C 199.771 25.241,200.777 24.778,201.481 24.624 C 202.186 24.471,203.176 24.031,203.681 23.648 C 204.187 23.265,205.410 22.720,206.400 22.436 C 207.390 22.153,208.473 21.679,208.806 21.383 C 209.140 21.087,210.310 20.645,211.406 20.400 C 212.503 20.156,213.766 19.717,214.214 19.425 C 215.353 18.683,220.773 17.622,222.104 17.880 C 223.625 18.176,223.867 19.481,222.834 21.815 C 222.375 22.853,221.999 23.904,221.998 24.151 C 221.995 24.611,221.841 24.925,219.663 28.909 C 217.207 33.401,218.285 34.493,222.013 31.289 C 223.143 30.319,226.204 28.414,226.646 28.407 C 226.891 28.403,227.559 28.033,228.130 27.584 C 229.452 26.544,234.845 25.477,237.117 25.806 C 240.419 26.284,241.824 28.276,243.631 35.045 C 244.048 36.609,244.661 38.409,244.993 39.045 C 245.324 39.680,245.599 40.470,245.605 40.800 C 245.625 42.020,250.171 48.271,251.300 48.631 C 251.685 48.754,252.000 49.013,252.000 49.207 C 252.000 49.886,257.264 52.063,259.900 52.473 C 261.364 52.701,262.931 53.121,263.381 53.405 C 263.831 53.690,265.010 54.050,266.000 54.206 C 266.990 54.362,268.700 54.907,269.800 55.419 C 270.900 55.930,272.282 56.466,272.871 56.610 C 273.460 56.754,274.033 57.108,274.143 57.396 C 274.254 57.684,275.009 58.139,275.822 58.407 C 278.035 59.138,281.297 62.558,282.549 65.461 C 283.602 67.903,283.609 67.992,283.585 77.542 C 283.554 89.751,283.643 89.990,288.485 90.577 C 296.892 91.596,300.161 101.039,296.802 114.600 C 296.311 116.581,296.034 118.943,296.075 120.800 C 296.117 122.748,296.190 123.169,296.284 122.000 C 296.363 121.010,296.815 118.670,297.288 116.800 C 298.012 113.938,298.152 112.197,298.174 105.800 L 298.200 98.200 296.800 95.600 C 295.025 92.303,292.651 90.587,289.297 90.175 C 284.002 89.525,283.958 89.412,284.077 76.696 L 284.168 67.000 282.921 64.585 C 281.546 61.922,279.146 59.498,275.917 57.511 C 273.594 56.082,270.909 55.009,265.170 53.219 C 263.723 52.768,261.473 52.215,260.170 51.990 C 257.764 51.575,253.616 49.893,252.304 48.800 C 250.562 47.349,248.384 44.934,248.155 44.200 C 248.018 43.760,247.678 43.130,247.399 42.800 C 247.121 42.470,246.600 41.174,246.241 39.920 C 245.883 38.667,245.424 37.538,245.222 37.413 C 245.019 37.288,244.642 36.154,244.382 34.893 C 243.144 28.867,239.716 24.800,235.877 24.800 C 232.455 24.800,225.508 27.784,221.800 30.846 C 219.754 32.537,219.411 29.125,221.394 26.800 C 221.675 26.470,222.042 25.750,222.209 25.200 C 222.375 24.650,222.847 23.573,223.256 22.806 C 224.988 19.561,222.978 15.380,220.370 16.800 M200.000 84.431 C 198.350 84.625,196.190 84.958,195.200 85.170 C 194.210 85.383,192.143 85.675,190.607 85.820 C 189.070 85.965,186.694 86.429,185.327 86.852 C 183.959 87.274,181.840 87.805,180.617 88.031 C 179.395 88.257,177.631 88.788,176.697 89.212 C 175.764 89.636,174.640 89.988,174.200 89.995 C 173.760 90.002,172.500 90.450,171.400 90.991 C 170.300 91.532,169.237 91.981,169.039 91.987 C 168.468 92.007,164.343 93.986,162.800 94.980 C 157.254 98.552,155.590 99.708,154.046 101.062 C 151.374 103.406,146.794 108.805,145.957 110.600 C 145.546 111.480,145.035 112.470,144.820 112.800 C 144.151 113.831,142.000 119.105,142.000 119.715 C 142.000 120.034,141.609 121.444,141.131 122.848 C 140.071 125.958,139.746 144.648,140.309 170.000 C 140.616 183.815,140.589 185.049,139.968 185.626 C 138.943 186.578,131.001 186.688,130.480 185.758 C 129.808 184.557,129.585 185.867,130.208 187.358 C 130.796 188.766,130.863 188.800,133.005 188.800 C 134.212 188.800,135.210 188.935,135.222 189.100 C 135.262 189.662,135.974 195.394,136.233 197.241 C 136.511 199.229,135.143 200.557,134.672 198.756 C 134.564 198.342,134.144 197.878,133.738 197.723 C 133.332 197.569,132.703 197.073,132.340 196.621 C 130.539 194.379,122.800 191.876,122.800 193.536 C 122.800 193.989,122.501 194.528,122.135 194.733 C 121.559 195.055,121.530 195.341,121.919 196.852 C 122.166 197.814,122.567 200.460,122.811 202.734 C 123.104 205.474,123.514 207.296,124.025 208.134 C 124.463 208.853,124.798 210.127,124.799 211.082 C 124.800 212.341,125.051 213.015,125.800 213.764 C 126.491 214.454,126.800 215.202,126.800 216.182 C 126.800 216.962,126.975 217.600,127.190 217.600 C 127.671 217.600,128.800 219.720,128.800 220.623 C 128.800 220.987,129.250 221.639,129.800 222.071 C 130.460 222.590,130.800 223.256,130.800 224.029 C 130.800 225.945,131.470 225.358,131.723 223.222 C 132.190 219.277,134.023 217.814,137.533 218.585 L 138.683 218.838 139.216 224.832 C 139.733 230.638,140.154 232.047,141.182 231.411 C 141.706 231.087,141.707 216.577,141.183 206.800 C 140.977 202.950,140.691 197.536,140.547 194.768 C 140.259 189.237,140.521 186.800,141.404 186.800 C 142.580 186.800,142.720 185.432,142.320 177.800 C 142.101 173.620,141.838 168.535,141.734 166.500 C 141.630 164.465,141.377 162.800,141.173 162.800 C 140.262 162.800,140.726 130.068,141.654 128.812 C 142.348 127.874,142.544 126.919,142.699 123.728 C 142.868 120.244,142.997 119.696,143.845 118.884 C 144.505 118.251,144.800 117.523,144.800 116.530 C 144.800 115.510,145.091 114.822,145.800 114.165 C 146.410 113.600,146.800 112.799,146.800 112.114 C 146.800 111.333,147.074 110.869,147.698 110.595 C 148.191 110.378,148.656 109.877,148.731 109.482 C 148.882 108.677,149.450 108.001,152.725 104.725 C 155.947 101.503,156.658 100.899,157.561 100.612 C 158.000 100.473,158.470 100.008,158.606 99.580 C 158.743 99.151,159.181 98.800,159.581 98.800 C 159.981 98.800,160.595 98.362,160.946 97.826 C 161.363 97.190,162.039 96.808,162.892 96.726 C 163.792 96.639,164.323 96.319,164.595 95.700 C 164.870 95.072,165.331 94.800,166.121 94.800 C 167.557 94.800,168.800 94.144,168.800 93.386 C 168.800 92.949,169.312 92.800,170.818 92.800 C 172.438 92.800,173.034 92.602,173.836 91.800 C 174.608 91.028,175.249 90.800,176.644 90.800 C 178.466 90.800,179.862 90.294,180.600 89.366 C 180.849 89.052,182.305 88.814,184.468 88.732 C 187.341 88.623,188.096 88.453,188.868 87.744 C 189.721 86.960,190.357 86.872,196.400 86.701 C 201.893 86.544,203.369 86.369,205.200 85.657 C 208.527 84.362,223.482 84.364,226.800 85.660 C 228.656 86.384,230.091 86.549,235.978 86.712 C 242.392 86.889,243.010 86.971,243.617 87.721 C 244.170 88.403,244.862 88.565,247.839 88.708 C 249.997 88.811,251.558 89.074,251.800 89.374 C 252.523 90.269,253.921 90.800,255.556 90.800 C 256.738 90.800,257.429 91.065,258.164 91.800 C 258.714 92.350,259.614 92.800,260.164 92.800 C 260.714 92.800,261.614 93.250,262.164 93.800 C 262.714 94.350,263.601 94.800,264.135 94.800 C 264.782 94.800,265.179 95.077,265.324 95.630 C 265.443 96.086,265.897 96.553,266.333 96.667 C 266.769 96.781,267.219 97.231,267.333 97.667 C 267.447 98.103,267.914 98.557,268.370 98.676 C 269.007 98.843,269.200 99.213,269.200 100.266 C 269.200 101.216,269.508 101.923,270.200 102.565 C 271.003 103.309,271.200 103.877,271.202 105.446 C 271.205 107.813,271.840 110.265,272.561 110.689 C 272.927 110.904,273.155 112.358,273.299 115.400 C 273.490 119.410,274.083 122.000,274.810 122.000 C 274.965 122.000,275.177 124.682,275.283 127.960 C 275.449 133.137,275.587 134.112,276.337 135.383 C 277.106 136.686,277.201 137.445,277.213 142.323 C 277.229 148.787,277.702 153.000,278.518 153.930 C 278.989 154.467,279.142 156.558,279.292 164.491 C 279.474 174.128,279.504 174.421,280.450 175.891 C 282.207 178.620,282.400 179.166,282.400 181.418 C 282.400 183.557,282.766 186.668,283.623 191.800 C 283.843 193.120,284.198 197.797,284.411 202.193 C 284.897 212.223,284.997 212.800,286.245 212.800 C 287.121 212.800,287.200 212.639,287.200 210.847 C 287.200 206.202,293.593 207.939,294.232 212.758 C 294.578 215.367,295.032 215.672,295.323 213.492 C 295.469 212.404,295.844 211.604,296.375 211.251 C 296.925 210.886,297.200 210.271,297.200 209.411 C 297.200 207.703,297.915 205.718,298.628 205.445 C 299.030 205.290,299.200 204.559,299.200 202.986 C 299.200 200.599,299.699 199.200,300.551 199.200 C 301.167 199.200,301.774 186.365,301.269 184.000 C 300.633 181.012,295.418 182.248,291.219 186.382 C 290.108 187.474,289.200 188.556,289.200 188.784 C 289.200 189.013,288.840 189.200,288.400 189.200 C 287.643 189.200,287.600 188.933,287.600 184.260 C 287.600 177.175,287.781 176.800,291.196 176.800 C 293.217 176.800,293.972 176.649,294.140 176.213 C 294.424 175.472,293.722 175.007,293.082 175.512 C 292.817 175.722,290.464 176.016,287.853 176.166 C 282.250 176.487,281.600 176.203,281.600 173.426 C 281.600 172.519,281.337 169.621,281.016 166.988 C 280.695 164.355,280.248 159.410,280.021 156.000 C 279.795 152.590,279.349 148.180,279.031 146.200 C 278.713 144.220,278.338 140.890,278.198 138.800 C 278.058 136.710,277.703 133.470,277.409 131.600 C 277.115 129.730,276.663 126.580,276.405 124.600 C 276.148 122.620,275.664 119.650,275.329 118.000 C 274.995 116.350,274.495 113.650,274.217 112.000 C 272.075 99.285,266.319 91.736,257.296 89.813 C 256.579 89.660,255.499 89.289,254.896 88.989 C 253.208 88.150,245.979 86.542,237.600 85.142 C 231.662 84.151,206.438 83.673,200.000 84.431 M295.219 129.500 C 294.267 138.668,294.069 141.352,294.094 144.800 C 294.115 147.712,294.163 147.456,294.429 143.019 C 294.600 140.169,294.927 136.749,295.155 135.419 C 295.604 132.808,296.182 124.400,295.913 124.400 C 295.823 124.400,295.511 126.695,295.219 129.500 M197.842 125.629 C 196.258 126.084,193.680 129.071,193.378 130.800 C 192.968 133.155,192.864 133.101,192.832 130.514 C 192.790 127.210,192.482 127.056,186.342 127.275 C 182.343 127.417,181.434 127.572,180.485 128.274 C 179.641 128.898,178.601 129.143,176.306 129.259 C 173.826 129.384,173.071 129.581,172.300 130.306 C 171.776 130.798,170.910 131.202,170.374 131.205 C 168.732 131.215,167.637 131.652,167.402 132.394 C 167.257 132.851,166.600 133.194,165.548 133.362 C 164.424 133.542,163.858 133.856,163.722 134.377 C 163.613 134.793,163.103 135.238,162.589 135.367 C 162.074 135.496,161.542 135.952,161.406 136.380 C 161.270 136.809,160.817 137.267,160.400 137.400 C 159.983 137.533,159.528 137.997,159.389 138.433 C 159.251 138.869,158.702 139.662,158.169 140.195 C 157.634 140.730,157.200 141.636,157.200 142.218 C 157.200 142.828,156.821 143.578,156.300 144.001 C 155.515 144.637,155.382 145.178,155.255 148.259 C 155.144 150.956,154.932 152.014,154.355 152.748 C 152.810 154.712,153.480 160.800,155.241 160.800 C 156.074 160.800,156.024 162.049,155.155 162.980 C 153.501 164.750,157.278 170.800,160.038 170.800 C 162.371 170.800,164.220 174.563,162.300 175.405 C 161.596 175.714,161.372 176.186,161.273 177.576 C 161.204 178.552,160.799 179.840,160.373 180.437 C 159.391 181.817,159.386 183.057,160.360 183.579 C 161.147 184.000,161.600 183.479,161.600 182.152 C 161.600 181.831,163.019 180.142,164.754 178.398 C 166.662 176.480,167.471 175.453,166.802 175.799 C 166.194 176.113,165.592 176.644,165.464 176.978 C 165.334 177.315,164.966 177.485,164.639 177.360 C 163.425 176.894,165.614 173.572,168.523 171.465 C 174.163 167.379,183.763 168.178,189.360 173.200 C 191.519 175.136,194.110 178.735,193.845 179.427 C 193.532 180.242,192.901 180.136,192.390 179.181 C 192.149 178.730,191.557 178.186,191.076 177.971 C 190.594 177.756,189.588 177.134,188.841 176.590 C 188.093 176.045,187.283 175.601,187.041 175.602 C 186.798 175.603,187.071 175.918,187.646 176.302 C 188.222 176.686,189.407 177.478,190.279 178.063 C 191.972 179.196,193.531 180.883,194.671 182.813 C 195.057 183.467,195.683 184.099,196.061 184.219 C 196.440 184.340,196.806 184.767,196.875 185.169 C 197.074 186.333,198.800 185.500,198.800 184.239 C 198.800 183.471,198.558 183.216,197.700 183.087 C 197.095 182.995,198.535 182.893,200.900 182.860 L 205.200 182.800 205.200 181.497 C 205.200 180.780,205.659 179.331,206.221 178.276 C 207.538 175.802,208.280 168.369,207.634 164.137 C 206.954 159.687,205.753 154.687,205.055 153.400 C 204.698 152.740,204.404 151.985,204.402 151.722 C 204.401 151.459,203.725 149.954,202.900 148.378 C 202.075 146.802,201.106 144.950,200.746 144.262 C 200.284 143.381,200.196 142.737,200.446 142.080 C 200.641 141.567,200.800 139.910,200.800 138.398 C 200.800 136.885,200.980 135.536,201.200 135.400 C 201.708 135.086,201.722 133.082,201.220 132.580 C 201.010 132.370,200.785 130.870,200.720 129.247 C 200.582 125.851,199.929 125.030,197.842 125.629 M200.059 130.699 C 201.081 139.877,199.793 141.855,192.430 142.414 C 189.742 142.618,186.819 142.980,185.934 143.218 C 185.049 143.456,182.712 143.912,180.741 144.231 C 178.769 144.550,176.761 145.058,176.278 145.360 C 175.795 145.663,174.454 146.128,173.299 146.395 C 172.143 146.662,171.119 147.007,171.023 147.163 C 170.927 147.318,169.461 148.155,167.766 149.022 C 165.563 150.149,163.555 151.670,160.737 154.345 C 155.787 159.043,155.381 158.967,155.804 153.421 C 156.816 140.165,164.787 132.299,179.554 129.983 C 181.009 129.755,183.605 129.287,185.321 128.944 C 190.604 127.886,191.374 128.318,192.201 132.800 C 192.865 136.393,193.012 136.336,194.805 131.800 C 196.307 128.001,196.534 127.689,197.929 127.510 C 199.474 127.313,199.724 127.687,200.059 130.699 M236.900 135.796 C 236.185 136.107,235.600 136.550,235.600 136.781 C 235.600 137.012,234.781 137.200,233.774 137.200 C 231.864 137.200,230.422 137.740,229.880 138.658 C 229.704 138.956,229.218 139.200,228.799 139.200 C 226.444 139.200,225.247 140.890,225.147 144.360 L 225.093 146.200 224.828 144.302 C 224.476 141.772,224.010 141.400,221.194 141.400 C 218.099 141.400,217.543 141.946,217.543 144.987 C 217.543 146.764,217.732 147.488,218.371 148.170 C 218.842 148.671,219.200 149.588,219.200 150.293 C 219.200 151.887,219.556 152.800,220.179 152.800 C 220.450 152.800,220.877 153.250,221.127 153.800 C 221.438 154.482,221.904 154.800,222.591 154.800 C 223.806 154.800,223.807 154.816,222.800 156.696 C 222.360 157.516,222.000 158.466,222.000 158.805 C 222.000 159.144,221.706 159.842,221.346 160.356 C 220.361 161.762,219.850 167.656,220.467 170.500 L 220.965 172.800 225.056 172.800 C 227.307 172.800,229.610 172.624,230.174 172.410 C 230.988 172.100,231.200 172.142,231.200 172.610 C 231.200 172.973,230.815 173.200,230.200 173.200 C 229.268 173.200,229.200 173.335,229.200 175.173 C 229.200 176.757,229.051 177.193,228.443 177.386 C 227.621 177.647,227.214 178.710,227.205 180.620 C 227.193 183.297,229.715 183.745,230.403 181.188 C 230.679 180.164,231.002 179.677,231.288 179.854 C 231.536 180.007,231.437 179.703,231.069 179.177 C 228.057 174.878,238.737 166.117,246.821 166.257 C 251.341 166.335,258.000 170.346,258.000 172.991 C 258.000 173.861,256.701 173.743,255.893 172.800 C 255.516 172.360,254.997 172.000,254.738 172.000 C 254.480 172.000,255.108 172.654,256.134 173.454 C 257.160 174.253,258.000 175.040,258.000 175.203 C 258.000 175.366,258.630 176.187,259.400 177.028 C 260.170 177.869,260.800 178.881,260.800 179.278 C 260.800 180.163,261.329 180.209,262.014 179.383 C 262.438 178.872,262.378 178.567,261.663 177.599 C 261.130 176.879,260.800 175.842,260.800 174.892 C 260.800 173.878,260.512 173.042,259.958 172.447 C 259.495 171.950,258.987 171.061,258.831 170.471 C 258.654 169.805,258.226 169.353,257.698 169.275 C 257.180 169.199,256.801 168.809,256.725 168.275 C 256.645 167.714,256.269 167.353,255.678 167.269 C 255.145 167.194,254.602 166.731,254.388 166.169 C 254.084 165.368,253.723 165.190,252.310 165.140 C 250.969 165.093,250.855 165.042,251.783 164.905 C 252.434 164.809,253.477 164.301,254.101 163.776 C 254.725 163.251,255.993 162.480,256.918 162.063 C 257.843 161.646,259.590 160.381,260.800 159.254 C 262.693 157.489,263.018 157.314,263.128 158.001 C 263.293 159.034,266.171 159.173,266.557 158.167 C 267.242 156.383,266.807 152.801,265.800 151.925 C 265.250 151.447,264.800 150.683,264.800 150.228 C 264.799 149.773,264.354 148.883,263.811 148.251 C 263.267 147.619,262.719 146.773,262.591 146.372 C 262.463 145.970,262.028 145.536,261.623 145.407 C 261.218 145.279,260.790 144.806,260.673 144.357 C 260.555 143.908,260.103 143.447,259.667 143.333 C 259.231 143.219,258.781 142.769,258.667 142.333 C 258.553 141.897,258.086 141.443,257.630 141.324 C 257.173 141.204,256.800 140.862,256.800 140.564 C 256.800 140.265,256.260 139.741,255.600 139.400 C 254.940 139.059,254.400 138.633,254.400 138.454 C 254.400 138.019,252.559 137.200,251.581 137.200 C 251.152 137.200,250.800 136.936,250.800 136.614 C 250.800 135.133,239.901 134.492,236.900 135.796 M249.510 137.415 C 254.329 139.950,259.214 144.155,261.495 147.733 C 262.080 148.650,262.820 149.714,263.140 150.098 C 265.057 152.402,266.022 157.267,264.249 155.687 C 258.537 150.600,247.995 150.043,228.515 153.797 C 222.970 154.866,220.940 153.442,219.849 147.721 C 218.719 141.789,222.619 140.652,224.243 146.440 C 225.043 149.289,225.451 148.958,226.599 144.529 C 227.391 141.471,228.306 140.297,230.204 139.903 C 231.047 139.727,231.935 139.420,232.178 139.219 C 232.420 139.018,233.964 138.472,235.609 138.005 C 237.254 137.539,239.410 136.913,240.400 136.614 C 243.787 135.593,246.499 135.831,249.510 137.415 M116.800 150.526 C 116.800 150.621,117.174 151.544,117.631 152.577 C 118.422 154.364,120.400 157.578,120.400 157.075 C 120.400 156.597,119.464 154.800,119.215 154.800 C 119.074 154.800,118.634 153.899,118.238 152.798 C 117.647 151.154,116.800 149.816,116.800 150.526 M293.751 156.400 C 293.751 158.930,293.816 159.965,293.896 158.700 C 293.975 157.435,293.975 155.365,293.896 154.100 C 293.816 152.835,293.751 153.870,293.751 156.400 M121.395 159.449 C 121.725 160.082,121.996 160.790,121.998 161.022 C 121.999 161.255,122.450 162.055,123.000 162.800 C 123.550 163.545,124.000 163.962,124.000 163.727 C 124.000 163.491,123.731 163.075,123.402 162.802 C 123.073 162.528,122.594 161.604,122.337 160.748 C 122.080 159.891,121.628 158.989,121.332 158.744 C 120.928 158.408,120.943 158.583,121.395 159.449 M125.274 167.802 C 125.525 168.353,125.784 168.750,125.849 168.684 C 126.092 168.441,125.494 166.800,125.162 166.800 C 124.972 166.800,125.023 167.251,125.274 167.802 M293.314 169.800 C 293.317 170.900,293.395 171.303,293.487 170.695 C 293.579 170.086,293.577 169.186,293.482 168.695 C 293.387 168.203,293.311 168.700,293.314 169.800 M242.674 170.743 C 241.994 171.010,242.004 171.079,242.827 171.814 C 243.705 172.599,243.706 172.599,243.436 171.730 C 243.219 171.035,243.349 170.825,244.083 170.685 C 244.831 170.541,244.853 170.504,244.200 170.483 C 243.760 170.468,243.073 170.585,242.674 170.743 M249.600 170.811 C 250.370 170.987,251.450 171.238,252.000 171.369 C 252.846 171.572,252.815 171.518,251.800 171.022 C 251.140 170.700,250.060 170.449,249.400 170.464 C 248.215 170.492,248.217 170.496,249.600 170.811 M175.200 173.200 C 175.200 173.432,176.336 173.581,177.900 173.554 C 180.400 173.511,180.482 173.484,179.000 173.177 C 176.775 172.717,175.200 172.726,175.200 173.200 M170.400 174.000 C 169.608 174.254,169.567 174.320,170.200 174.320 C 170.640 174.320,171.450 174.176,172.000 174.000 C 172.792 173.746,172.833 173.680,172.200 173.680 C 171.760 173.680,170.950 173.824,170.400 174.000 M182.833 174.144 C 182.925 174.223,183.540 174.408,184.200 174.556 C 185.076 174.752,185.238 174.715,184.800 174.418 C 184.260 174.053,182.432 173.798,182.833 174.144 M128.028 176.433 C 128.044 176.965,128.219 177.760,128.419 178.200 C 128.671 178.758,128.707 178.515,128.538 177.400 C 128.255 175.543,127.987 175.036,128.028 176.433 M175.029 179.029 C 174.077 179.980,174.276 180.228,175.300 179.366 C 175.795 178.950,176.275 178.562,176.367 178.504 C 176.458 178.447,176.336 178.400,176.095 178.400 C 175.854 178.400,175.374 178.683,175.029 179.029 M129.701 182.600 C 129.705 183.480,129.787 183.793,129.883 183.295 C 129.979 182.798,129.975 182.078,129.875 181.695 C 129.775 181.313,129.696 181.720,129.701 182.600 M250.162 181.900 C 250.618 182.439,251.375 182.800,252.048 182.800 C 255.392 182.800,254.263 189.569,250.342 193.032 C 245.560 197.257,238.388 196.597,234.070 191.536 C 232.500 189.696,232.450 189.571,231.841 185.936 C 231.339 182.944,231.277 182.800,231.241 184.538 C 231.150 188.856,232.339 190.986,237.507 195.762 C 239.071 197.208,248.005 197.262,248.943 195.831 C 249.314 195.264,249.884 194.800,250.209 194.800 C 250.534 194.800,250.800 194.654,250.800 194.475 C 250.800 194.297,251.121 193.802,251.514 193.375 C 254.961 189.629,255.468 182.400,252.283 182.400 C 251.612 182.400,250.689 182.085,250.231 181.700 C 249.401 181.001,249.401 181.001,250.162 181.900 M170.389 184.421 C 170.147 184.872,170.006 185.514,170.075 185.846 C 170.144 186.179,170.398 185.809,170.640 185.025 C 171.135 183.423,171.042 183.200,170.389 184.421 M192.000 186.950 C 192.000 187.059,192.181 187.623,192.402 188.204 C 193.439 190.934,190.998 196.252,187.648 198.562 C 183.170 201.648,174.928 200.194,172.155 195.829 C 170.551 193.304,170.299 192.613,169.977 189.851 L 169.645 187.000 169.788 190.356 C 169.901 192.977,170.115 193.959,170.766 194.840 C 171.225 195.460,171.600 196.145,171.600 196.362 C 171.600 197.134,175.965 200.304,177.399 200.573 C 178.194 200.723,179.195 201.195,179.622 201.622 C 180.705 202.705,183.411 202.691,184.093 201.600 C 184.402 201.105,185.026 200.800,185.729 200.800 C 188.999 200.800,193.808 192.769,193.028 188.611 C 192.820 187.499,192.000 186.175,192.000 186.950 M227.358 217.541 C 226.454 217.904,225.464 218.406,225.158 218.659 C 224.851 218.911,223.790 219.347,222.800 219.628 C 221.810 219.908,220.698 220.393,220.329 220.705 C 219.959 221.017,218.879 221.435,217.929 221.634 C 216.978 221.832,215.274 222.297,214.143 222.666 C 212.228 223.290,211.938 223.291,209.943 222.678 C 208.764 222.315,206.900 221.825,205.800 221.587 C 204.700 221.350,203.407 220.899,202.926 220.586 C 202.123 220.062,200.100 219.440,197.600 218.948 C 196.743 218.779,196.700 218.815,197.300 219.196 C 197.685 219.440,198.000 219.978,198.000 220.391 C 198.000 220.804,198.495 221.518,199.100 221.977 C 199.705 222.436,200.674 223.214,201.254 223.706 C 202.865 225.072,204.081 225.987,205.400 226.826 C 206.060 227.245,206.870 227.771,207.200 227.994 C 207.530 228.218,208.250 228.588,208.800 228.817 C 209.350 229.047,210.250 229.494,210.800 229.811 C 212.263 230.655,216.762 230.586,218.003 229.700 C 218.542 229.315,219.385 228.820,219.876 228.600 C 222.753 227.309,230.000 219.617,230.000 217.852 C 230.000 216.652,229.671 216.614,227.358 217.541 M246.355 220.516 C 245.893 220.868,245.804 221.258,246.040 221.895 C 246.614 223.449,244.628 226.371,240.422 230.159 C 239.664 230.841,238.467 231.940,237.762 232.600 C 235.302 234.904,228.865 239.600,228.168 239.600 C 227.889 239.600,227.153 240.023,226.531 240.539 C 225.909 241.056,224.887 241.604,224.260 241.757 C 223.633 241.910,222.643 242.371,222.060 242.780 C 221.477 243.190,220.333 243.639,219.517 243.778 C 218.701 243.916,217.558 244.277,216.976 244.579 L 215.918 245.128 216.965 245.814 C 218.285 246.679,223.871 246.482,226.000 245.496 C 226.770 245.139,228.144 244.655,229.053 244.421 C 229.963 244.186,230.915 243.743,231.170 243.436 C 231.424 243.130,232.120 242.757,232.716 242.608 C 234.262 242.223,238.115 239.723,240.266 237.709 C 240.789 237.219,241.574 236.628,242.009 236.395 C 242.444 236.162,242.800 235.729,242.800 235.433 C 242.800 235.136,243.173 234.796,243.630 234.676 C 244.086 234.557,244.557 234.086,244.676 233.630 C 244.796 233.173,245.136 232.800,245.433 232.800 C 245.729 232.800,246.187 232.395,246.449 231.900 C 246.712 231.405,247.258 230.765,247.663 230.477 C 248.069 230.190,248.400 229.729,248.400 229.453 C 248.400 228.872,250.640 227.099,251.762 226.791 C 253.017 226.447,253.325 225.550,252.826 223.697 C 252.070 220.887,248.301 219.035,246.355 220.516 M165.689 284.623 L 164.800 285.245 164.800 299.029 L 164.800 312.812 173.904 317.306 C 183.255 321.922,184.676 322.562,186.400 322.937 C 186.950 323.056,188.480 323.455,189.800 323.824 C 191.120 324.192,193.370 324.628,194.800 324.793 C 196.230 324.957,198.029 325.296,198.797 325.546 C 199.682 325.833,203.426 325.988,208.997 325.966 C 217.348 325.934,219.831 325.751,224.000 324.856 C 224.990 324.644,226.756 324.300,227.924 324.091 C 229.092 323.883,230.253 323.507,230.504 323.256 C 230.755 323.005,231.536 322.800,232.239 322.800 C 232.943 322.800,234.537 322.264,235.783 321.609 C 237.028 320.954,238.801 320.224,239.723 319.986 C 242.065 319.381,246.938 316.954,247.845 315.941 C 248.260 315.476,249.385 314.758,250.344 314.344 C 251.303 313.930,252.903 312.873,253.900 311.995 C 254.897 311.118,255.918 310.400,256.169 310.400 C 256.420 310.400,257.658 309.357,258.919 308.081 L 261.214 305.763 261.107 295.514 L 261.000 285.265 259.400 286.424 C 258.520 287.061,257.412 287.756,256.939 287.967 C 256.465 288.178,255.963 288.537,255.822 288.764 C 255.682 288.991,254.809 289.544,253.883 289.991 C 252.958 290.439,250.850 291.519,249.200 292.392 C 247.550 293.265,245.966 293.984,245.679 293.990 C 245.393 293.995,244.493 294.351,243.679 294.779 C 241.921 295.706,239.419 296.556,234.800 297.796 C 232.930 298.299,230.937 298.893,230.370 299.118 C 227.773 300.149,210.090 301.385,208.835 300.624 C 208.706 300.546,206.530 300.271,204.000 300.013 C 201.358 299.744,198.180 299.131,196.533 298.572 C 194.956 298.038,193.384 297.600,193.041 297.600 C 192.313 297.600,187.904 295.940,184.960 294.558 C 183.838 294.031,182.805 293.600,182.664 293.600 C 182.317 293.600,174.678 289.358,172.860 288.156 C 171.248 287.090,170.418 286.482,168.542 284.996 C 167.066 283.827,166.863 283.800,165.689 284.623 " stroke="none" fill="#ecb4a2" fill-rule="evenodd"></path></g></svg>