<svg id="svg" version="1.1" xmlns="http://www.w3.org/2000/svg" xmlns:xlink="http://www.w3.org/1999/xlink" width="400" height="400" viewBox="0, 0, 400,400"><g id="svgg"><path id="path0" d="M96.383 27.111 C 91.433 33.121,74.176 80.583,75.923 83.381 C 77.478 85.871,72.289 89.061,39.560 105.734 C 0.814 125.472,-2.599 127.941,2.216 132.755 C 4.633 135.173,9.534 133.127,48.756 113.330 L 92.595 91.203 124.575 103.450 C 160.056 117.038,158.616 117.008,164.332 104.271 L 168.443 95.111 172.285 103.850 C 174.397 108.657,177.365 113.495,178.880 114.603 C 181.954 116.850,183.298 103.624,164.362 257.409 C 159.030 300.718,154.667 338.079,154.667 340.436 C 154.667 344.210,194.958 375.111,199.879 375.111 C 201.656 375.111,242.492 347.426,244.744 344.694 C 246.298 342.808,243.491 315.466,232.898 229.333 C 221.513 136.756,219.424 115.965,221.289 113.778 C 222.539 112.311,225.330 107.111,227.490 102.222 L 231.419 93.333 234.935 102.222 C 240.911 117.325,239.132 117.269,275.201 103.487 L 307.382 91.192 351.232 113.324 C 390.464 133.126,395.367 135.173,397.784 132.755 C 402.599 127.941,399.186 125.472,360.440 105.734 C 327.711 89.061,322.522 85.871,324.077 83.381 C 325.824 80.583,308.567 33.121,303.617 27.111 C 300.947 23.869,99.053 23.869,96.383 27.111 M266.667 37.210 C 226.983 60.228,173.017 60.228,133.333 37.210 C 131.788 36.314,159.824 35.664,200.000 35.664 C 240.176 35.664,268.212 36.314,266.667 37.210 M168.392 62.911 C 168.650 63.168,165.976 70.519,162.451 79.245 C 158.926 87.971,155.384 96.828,154.580 98.926 C 153.345 102.148,93.306 82.929,87.570 77.474 C 87.333 77.249,90.024 69.926,93.549 61.199 C 97.074 52.473,100.622 43.601,101.433 41.484 C 102.689 38.207,162.983 57.502,168.392 62.911 M305.488 58.529 C 309.547 68.720,312.672 77.244,312.434 77.471 C 306.698 82.927,246.656 102.150,245.420 98.926 C 244.616 96.828,241.052 87.916,237.500 79.123 C 233.947 70.329,231.657 62.879,232.409 62.567 C 254.155 53.551,296.276 38.155,297.055 38.938 C 297.635 39.522,301.430 48.338,305.488 58.529 M223.155 72.379 C 225.814 78.744,225.727 79.398,220.728 90.602 L 215.543 102.222 199.938 103.111 L 184.333 104.000 179.278 92.723 C 173.363 79.531,173.470 80.456,176.913 72.217 L 179.603 65.778 200.000 65.778 L 220.397 65.778 223.155 72.379 M210.517 136.391 C 212.451 148.535,234.667 331.915,234.667 335.734 C 234.667 339.353,204.867 361.481,199.993 361.481 C 198.446 361.481,172.070 344.164,166.642 339.585 C 165.895 338.955,169.310 305.691,174.229 265.664 C 179.149 225.638,184.766 179.689,186.712 163.556 C 188.658 147.422,190.711 131.243,191.274 127.601 L 192.297 120.980 200.872 125.325 C 208.332 129.105,209.586 130.544,210.517 136.391 " stroke="none" fill="#000000" fill-rule="evenodd"></path></g></svg>